%
M48
M72
T01C0.02756
T02C0.03150
T03C0.03200
T04C0.04000
T05C0.04331
T06C0.04400
T07C0.04724
T08C0.16142
%
T01
X36800Y51800
X51800Y51800
X81800Y61800
X81800Y71800
X81800Y86800
X88040Y91800
X51800Y111800
X36800Y111800
X36800Y151800
X51800Y151800
X81800Y171800
X88040Y141800
X131800Y141800
X146800Y136800
X141800Y121800
X171800Y101800
X171800Y149300
X131800Y51800
T02
X141800Y161800
X151800Y161800
X161800Y161800
X171800Y161800
X181800Y161800
X191800Y161800
X201800Y161800
X211800Y161800
X221800Y161800
X231800Y161800
X241800Y161800
X251800Y161800
X261800Y161800
X271800Y161800
X271800Y191800
X261800Y191800
X251800Y191800
X241800Y191800
X231800Y191800
X221800Y191800
X211800Y191800
X201800Y191800
X191800Y191800
X181800Y191800
X171800Y191800
X161800Y191800
X151800Y191800
X141800Y191800
T03
X106800Y201800
X106800Y211800
X86800Y211800
X86800Y201800
X76800Y326800
X66800Y326800
X66800Y346800
X76800Y346800
X296800Y181800
X296800Y171800
X316800Y171800
X316800Y181800
T04
X156800Y131800
X156800Y121800
X156800Y111800
X156800Y101800
X156800Y91800
X156800Y81800
X156800Y71800
X156800Y61800
X156800Y51800
X156800Y41800
X156800Y31800
X156800Y21800
X96800Y21800
X96800Y31800
X96800Y41800
X96800Y51800
X96800Y61800
X96800Y71800
X96800Y81800
X96800Y91800
X96800Y101800
X96800Y111800
X96800Y121800
X96800Y131800
T05
X126800Y216800
X116800Y226800
X116800Y236800
X106800Y246800
X96800Y256800
X86800Y266800
X76800Y276800
X66800Y286800
X106800Y286800
X116800Y276800
X126800Y266800
X136800Y256800
X146800Y246800
X156800Y236800
X166800Y226800
X176800Y216800
X236800Y216800
X246800Y226800
X256800Y236800
X266800Y246800
X276800Y256800
X286800Y266800
X296800Y276800
X306800Y286800
X326800Y266800
X316800Y256800
X306800Y246800
X296800Y236800
X296800Y226800
X286800Y216800
X336800Y276800
X346800Y286800
X191800Y149300
X191800Y109300
T06
X186800Y301800
X176800Y301800
X166800Y301800
X156800Y301800
X146800Y301800
X136800Y301800
X126800Y301800
X116800Y301800
X106800Y301800
X106800Y331800
X116800Y331800
X126800Y331800
X136800Y331800
X146800Y331800
X156800Y331800
X166800Y331800
X176800Y331800
X186800Y331800
X236800Y331800
X246800Y331800
X256800Y331800
X266800Y331800
X276800Y331800
X286800Y331800
X296800Y331800
X306800Y331800
X316800Y331800
X316800Y301800
X306800Y301800
X296800Y301800
X286800Y301800
X276800Y301800
X266800Y301800
X256800Y301800
X246800Y301800
X236800Y301800
T07
X236800Y366800
X246800Y366800
X256800Y366800
X266800Y366800
X276800Y366800
X286800Y366800
X296800Y366800
X306800Y366800
X326800Y366800
X336800Y366800
X216800Y366800
X206800Y366800
X196800Y366800
X186800Y366800
X166800Y366800
X156800Y366800
X146800Y366800
X136800Y366800
X126800Y366800
X116800Y366800
X106800Y366800
X96800Y366800
X76800Y366800
X66800Y366800
X66800Y211800
X66800Y201800
X66800Y181800
X66800Y171800
X66800Y161800
X66800Y151800
X66800Y141800
X66800Y131800
X66800Y121800
X66800Y111800
X66800Y91800
X66800Y81800
X66800Y71800
X66800Y61800
X66800Y51800
X66800Y41800
X66800Y31800
X66800Y21800
T08
X26800Y26800
X26800Y371800
X371800Y371800
X371800Y26800
M30
