G75*
%MOIN*%
%OFA0B0*%
%FSLAX25Y25*%
%IPPOS*%
%LPD*%
%AMOC8*
5,1,8,0,0,1.08239X$1,22.5*
%
%ADD10C,0.00000*%
%ADD11C,0.00500*%
%ADD12C,0.00400*%
%ADD13C,0.00600*%
%ADD14C,0.00300*%
%ADD15C,0.00800*%
%ADD16C,0.01000*%
%ADD17C,0.01200*%
%ADD18R,0.03750X0.02400*%
%ADD19R,0.02500X0.02400*%
%ADD20R,0.02400X0.03750*%
D10*
X0001800Y0001800D02*
X0001800Y0395501D01*
X0395501Y0395501D01*
X0395501Y0001800D01*
X0001800Y0001800D01*
X0018729Y0026800D02*
X0018731Y0026998D01*
X0018739Y0027196D01*
X0018751Y0027394D01*
X0018768Y0027591D01*
X0018790Y0027788D01*
X0018816Y0027984D01*
X0018848Y0028180D01*
X0018884Y0028375D01*
X0018925Y0028568D01*
X0018971Y0028761D01*
X0019021Y0028953D01*
X0019077Y0029143D01*
X0019136Y0029332D01*
X0019201Y0029519D01*
X0019270Y0029705D01*
X0019343Y0029889D01*
X0019421Y0030071D01*
X0019504Y0030251D01*
X0019591Y0030429D01*
X0019682Y0030605D01*
X0019778Y0030778D01*
X0019877Y0030949D01*
X0019981Y0031118D01*
X0020089Y0031284D01*
X0020201Y0031447D01*
X0020317Y0031608D01*
X0020437Y0031766D01*
X0020561Y0031920D01*
X0020689Y0032072D01*
X0020820Y0032220D01*
X0020955Y0032365D01*
X0021093Y0032507D01*
X0021235Y0032645D01*
X0021380Y0032780D01*
X0021528Y0032911D01*
X0021680Y0033039D01*
X0021834Y0033163D01*
X0021992Y0033283D01*
X0022153Y0033399D01*
X0022316Y0033511D01*
X0022482Y0033619D01*
X0022651Y0033723D01*
X0022822Y0033822D01*
X0022995Y0033918D01*
X0023171Y0034009D01*
X0023349Y0034096D01*
X0023529Y0034179D01*
X0023711Y0034257D01*
X0023895Y0034330D01*
X0024081Y0034399D01*
X0024268Y0034464D01*
X0024457Y0034523D01*
X0024647Y0034579D01*
X0024839Y0034629D01*
X0025032Y0034675D01*
X0025225Y0034716D01*
X0025420Y0034752D01*
X0025616Y0034784D01*
X0025812Y0034810D01*
X0026009Y0034832D01*
X0026206Y0034849D01*
X0026404Y0034861D01*
X0026602Y0034869D01*
X0026800Y0034871D01*
X0026998Y0034869D01*
X0027196Y0034861D01*
X0027394Y0034849D01*
X0027591Y0034832D01*
X0027788Y0034810D01*
X0027984Y0034784D01*
X0028180Y0034752D01*
X0028375Y0034716D01*
X0028568Y0034675D01*
X0028761Y0034629D01*
X0028953Y0034579D01*
X0029143Y0034523D01*
X0029332Y0034464D01*
X0029519Y0034399D01*
X0029705Y0034330D01*
X0029889Y0034257D01*
X0030071Y0034179D01*
X0030251Y0034096D01*
X0030429Y0034009D01*
X0030605Y0033918D01*
X0030778Y0033822D01*
X0030949Y0033723D01*
X0031118Y0033619D01*
X0031284Y0033511D01*
X0031447Y0033399D01*
X0031608Y0033283D01*
X0031766Y0033163D01*
X0031920Y0033039D01*
X0032072Y0032911D01*
X0032220Y0032780D01*
X0032365Y0032645D01*
X0032507Y0032507D01*
X0032645Y0032365D01*
X0032780Y0032220D01*
X0032911Y0032072D01*
X0033039Y0031920D01*
X0033163Y0031766D01*
X0033283Y0031608D01*
X0033399Y0031447D01*
X0033511Y0031284D01*
X0033619Y0031118D01*
X0033723Y0030949D01*
X0033822Y0030778D01*
X0033918Y0030605D01*
X0034009Y0030429D01*
X0034096Y0030251D01*
X0034179Y0030071D01*
X0034257Y0029889D01*
X0034330Y0029705D01*
X0034399Y0029519D01*
X0034464Y0029332D01*
X0034523Y0029143D01*
X0034579Y0028953D01*
X0034629Y0028761D01*
X0034675Y0028568D01*
X0034716Y0028375D01*
X0034752Y0028180D01*
X0034784Y0027984D01*
X0034810Y0027788D01*
X0034832Y0027591D01*
X0034849Y0027394D01*
X0034861Y0027196D01*
X0034869Y0026998D01*
X0034871Y0026800D01*
X0034869Y0026602D01*
X0034861Y0026404D01*
X0034849Y0026206D01*
X0034832Y0026009D01*
X0034810Y0025812D01*
X0034784Y0025616D01*
X0034752Y0025420D01*
X0034716Y0025225D01*
X0034675Y0025032D01*
X0034629Y0024839D01*
X0034579Y0024647D01*
X0034523Y0024457D01*
X0034464Y0024268D01*
X0034399Y0024081D01*
X0034330Y0023895D01*
X0034257Y0023711D01*
X0034179Y0023529D01*
X0034096Y0023349D01*
X0034009Y0023171D01*
X0033918Y0022995D01*
X0033822Y0022822D01*
X0033723Y0022651D01*
X0033619Y0022482D01*
X0033511Y0022316D01*
X0033399Y0022153D01*
X0033283Y0021992D01*
X0033163Y0021834D01*
X0033039Y0021680D01*
X0032911Y0021528D01*
X0032780Y0021380D01*
X0032645Y0021235D01*
X0032507Y0021093D01*
X0032365Y0020955D01*
X0032220Y0020820D01*
X0032072Y0020689D01*
X0031920Y0020561D01*
X0031766Y0020437D01*
X0031608Y0020317D01*
X0031447Y0020201D01*
X0031284Y0020089D01*
X0031118Y0019981D01*
X0030949Y0019877D01*
X0030778Y0019778D01*
X0030605Y0019682D01*
X0030429Y0019591D01*
X0030251Y0019504D01*
X0030071Y0019421D01*
X0029889Y0019343D01*
X0029705Y0019270D01*
X0029519Y0019201D01*
X0029332Y0019136D01*
X0029143Y0019077D01*
X0028953Y0019021D01*
X0028761Y0018971D01*
X0028568Y0018925D01*
X0028375Y0018884D01*
X0028180Y0018848D01*
X0027984Y0018816D01*
X0027788Y0018790D01*
X0027591Y0018768D01*
X0027394Y0018751D01*
X0027196Y0018739D01*
X0026998Y0018731D01*
X0026800Y0018729D01*
X0026602Y0018731D01*
X0026404Y0018739D01*
X0026206Y0018751D01*
X0026009Y0018768D01*
X0025812Y0018790D01*
X0025616Y0018816D01*
X0025420Y0018848D01*
X0025225Y0018884D01*
X0025032Y0018925D01*
X0024839Y0018971D01*
X0024647Y0019021D01*
X0024457Y0019077D01*
X0024268Y0019136D01*
X0024081Y0019201D01*
X0023895Y0019270D01*
X0023711Y0019343D01*
X0023529Y0019421D01*
X0023349Y0019504D01*
X0023171Y0019591D01*
X0022995Y0019682D01*
X0022822Y0019778D01*
X0022651Y0019877D01*
X0022482Y0019981D01*
X0022316Y0020089D01*
X0022153Y0020201D01*
X0021992Y0020317D01*
X0021834Y0020437D01*
X0021680Y0020561D01*
X0021528Y0020689D01*
X0021380Y0020820D01*
X0021235Y0020955D01*
X0021093Y0021093D01*
X0020955Y0021235D01*
X0020820Y0021380D01*
X0020689Y0021528D01*
X0020561Y0021680D01*
X0020437Y0021834D01*
X0020317Y0021992D01*
X0020201Y0022153D01*
X0020089Y0022316D01*
X0019981Y0022482D01*
X0019877Y0022651D01*
X0019778Y0022822D01*
X0019682Y0022995D01*
X0019591Y0023171D01*
X0019504Y0023349D01*
X0019421Y0023529D01*
X0019343Y0023711D01*
X0019270Y0023895D01*
X0019201Y0024081D01*
X0019136Y0024268D01*
X0019077Y0024457D01*
X0019021Y0024647D01*
X0018971Y0024839D01*
X0018925Y0025032D01*
X0018884Y0025225D01*
X0018848Y0025420D01*
X0018816Y0025616D01*
X0018790Y0025812D01*
X0018768Y0026009D01*
X0018751Y0026206D01*
X0018739Y0026404D01*
X0018731Y0026602D01*
X0018729Y0026800D01*
X0018729Y0371800D02*
X0018731Y0371998D01*
X0018739Y0372196D01*
X0018751Y0372394D01*
X0018768Y0372591D01*
X0018790Y0372788D01*
X0018816Y0372984D01*
X0018848Y0373180D01*
X0018884Y0373375D01*
X0018925Y0373568D01*
X0018971Y0373761D01*
X0019021Y0373953D01*
X0019077Y0374143D01*
X0019136Y0374332D01*
X0019201Y0374519D01*
X0019270Y0374705D01*
X0019343Y0374889D01*
X0019421Y0375071D01*
X0019504Y0375251D01*
X0019591Y0375429D01*
X0019682Y0375605D01*
X0019778Y0375778D01*
X0019877Y0375949D01*
X0019981Y0376118D01*
X0020089Y0376284D01*
X0020201Y0376447D01*
X0020317Y0376608D01*
X0020437Y0376766D01*
X0020561Y0376920D01*
X0020689Y0377072D01*
X0020820Y0377220D01*
X0020955Y0377365D01*
X0021093Y0377507D01*
X0021235Y0377645D01*
X0021380Y0377780D01*
X0021528Y0377911D01*
X0021680Y0378039D01*
X0021834Y0378163D01*
X0021992Y0378283D01*
X0022153Y0378399D01*
X0022316Y0378511D01*
X0022482Y0378619D01*
X0022651Y0378723D01*
X0022822Y0378822D01*
X0022995Y0378918D01*
X0023171Y0379009D01*
X0023349Y0379096D01*
X0023529Y0379179D01*
X0023711Y0379257D01*
X0023895Y0379330D01*
X0024081Y0379399D01*
X0024268Y0379464D01*
X0024457Y0379523D01*
X0024647Y0379579D01*
X0024839Y0379629D01*
X0025032Y0379675D01*
X0025225Y0379716D01*
X0025420Y0379752D01*
X0025616Y0379784D01*
X0025812Y0379810D01*
X0026009Y0379832D01*
X0026206Y0379849D01*
X0026404Y0379861D01*
X0026602Y0379869D01*
X0026800Y0379871D01*
X0026998Y0379869D01*
X0027196Y0379861D01*
X0027394Y0379849D01*
X0027591Y0379832D01*
X0027788Y0379810D01*
X0027984Y0379784D01*
X0028180Y0379752D01*
X0028375Y0379716D01*
X0028568Y0379675D01*
X0028761Y0379629D01*
X0028953Y0379579D01*
X0029143Y0379523D01*
X0029332Y0379464D01*
X0029519Y0379399D01*
X0029705Y0379330D01*
X0029889Y0379257D01*
X0030071Y0379179D01*
X0030251Y0379096D01*
X0030429Y0379009D01*
X0030605Y0378918D01*
X0030778Y0378822D01*
X0030949Y0378723D01*
X0031118Y0378619D01*
X0031284Y0378511D01*
X0031447Y0378399D01*
X0031608Y0378283D01*
X0031766Y0378163D01*
X0031920Y0378039D01*
X0032072Y0377911D01*
X0032220Y0377780D01*
X0032365Y0377645D01*
X0032507Y0377507D01*
X0032645Y0377365D01*
X0032780Y0377220D01*
X0032911Y0377072D01*
X0033039Y0376920D01*
X0033163Y0376766D01*
X0033283Y0376608D01*
X0033399Y0376447D01*
X0033511Y0376284D01*
X0033619Y0376118D01*
X0033723Y0375949D01*
X0033822Y0375778D01*
X0033918Y0375605D01*
X0034009Y0375429D01*
X0034096Y0375251D01*
X0034179Y0375071D01*
X0034257Y0374889D01*
X0034330Y0374705D01*
X0034399Y0374519D01*
X0034464Y0374332D01*
X0034523Y0374143D01*
X0034579Y0373953D01*
X0034629Y0373761D01*
X0034675Y0373568D01*
X0034716Y0373375D01*
X0034752Y0373180D01*
X0034784Y0372984D01*
X0034810Y0372788D01*
X0034832Y0372591D01*
X0034849Y0372394D01*
X0034861Y0372196D01*
X0034869Y0371998D01*
X0034871Y0371800D01*
X0034869Y0371602D01*
X0034861Y0371404D01*
X0034849Y0371206D01*
X0034832Y0371009D01*
X0034810Y0370812D01*
X0034784Y0370616D01*
X0034752Y0370420D01*
X0034716Y0370225D01*
X0034675Y0370032D01*
X0034629Y0369839D01*
X0034579Y0369647D01*
X0034523Y0369457D01*
X0034464Y0369268D01*
X0034399Y0369081D01*
X0034330Y0368895D01*
X0034257Y0368711D01*
X0034179Y0368529D01*
X0034096Y0368349D01*
X0034009Y0368171D01*
X0033918Y0367995D01*
X0033822Y0367822D01*
X0033723Y0367651D01*
X0033619Y0367482D01*
X0033511Y0367316D01*
X0033399Y0367153D01*
X0033283Y0366992D01*
X0033163Y0366834D01*
X0033039Y0366680D01*
X0032911Y0366528D01*
X0032780Y0366380D01*
X0032645Y0366235D01*
X0032507Y0366093D01*
X0032365Y0365955D01*
X0032220Y0365820D01*
X0032072Y0365689D01*
X0031920Y0365561D01*
X0031766Y0365437D01*
X0031608Y0365317D01*
X0031447Y0365201D01*
X0031284Y0365089D01*
X0031118Y0364981D01*
X0030949Y0364877D01*
X0030778Y0364778D01*
X0030605Y0364682D01*
X0030429Y0364591D01*
X0030251Y0364504D01*
X0030071Y0364421D01*
X0029889Y0364343D01*
X0029705Y0364270D01*
X0029519Y0364201D01*
X0029332Y0364136D01*
X0029143Y0364077D01*
X0028953Y0364021D01*
X0028761Y0363971D01*
X0028568Y0363925D01*
X0028375Y0363884D01*
X0028180Y0363848D01*
X0027984Y0363816D01*
X0027788Y0363790D01*
X0027591Y0363768D01*
X0027394Y0363751D01*
X0027196Y0363739D01*
X0026998Y0363731D01*
X0026800Y0363729D01*
X0026602Y0363731D01*
X0026404Y0363739D01*
X0026206Y0363751D01*
X0026009Y0363768D01*
X0025812Y0363790D01*
X0025616Y0363816D01*
X0025420Y0363848D01*
X0025225Y0363884D01*
X0025032Y0363925D01*
X0024839Y0363971D01*
X0024647Y0364021D01*
X0024457Y0364077D01*
X0024268Y0364136D01*
X0024081Y0364201D01*
X0023895Y0364270D01*
X0023711Y0364343D01*
X0023529Y0364421D01*
X0023349Y0364504D01*
X0023171Y0364591D01*
X0022995Y0364682D01*
X0022822Y0364778D01*
X0022651Y0364877D01*
X0022482Y0364981D01*
X0022316Y0365089D01*
X0022153Y0365201D01*
X0021992Y0365317D01*
X0021834Y0365437D01*
X0021680Y0365561D01*
X0021528Y0365689D01*
X0021380Y0365820D01*
X0021235Y0365955D01*
X0021093Y0366093D01*
X0020955Y0366235D01*
X0020820Y0366380D01*
X0020689Y0366528D01*
X0020561Y0366680D01*
X0020437Y0366834D01*
X0020317Y0366992D01*
X0020201Y0367153D01*
X0020089Y0367316D01*
X0019981Y0367482D01*
X0019877Y0367651D01*
X0019778Y0367822D01*
X0019682Y0367995D01*
X0019591Y0368171D01*
X0019504Y0368349D01*
X0019421Y0368529D01*
X0019343Y0368711D01*
X0019270Y0368895D01*
X0019201Y0369081D01*
X0019136Y0369268D01*
X0019077Y0369457D01*
X0019021Y0369647D01*
X0018971Y0369839D01*
X0018925Y0370032D01*
X0018884Y0370225D01*
X0018848Y0370420D01*
X0018816Y0370616D01*
X0018790Y0370812D01*
X0018768Y0371009D01*
X0018751Y0371206D01*
X0018739Y0371404D01*
X0018731Y0371602D01*
X0018729Y0371800D01*
X0363729Y0371800D02*
X0363731Y0371998D01*
X0363739Y0372196D01*
X0363751Y0372394D01*
X0363768Y0372591D01*
X0363790Y0372788D01*
X0363816Y0372984D01*
X0363848Y0373180D01*
X0363884Y0373375D01*
X0363925Y0373568D01*
X0363971Y0373761D01*
X0364021Y0373953D01*
X0364077Y0374143D01*
X0364136Y0374332D01*
X0364201Y0374519D01*
X0364270Y0374705D01*
X0364343Y0374889D01*
X0364421Y0375071D01*
X0364504Y0375251D01*
X0364591Y0375429D01*
X0364682Y0375605D01*
X0364778Y0375778D01*
X0364877Y0375949D01*
X0364981Y0376118D01*
X0365089Y0376284D01*
X0365201Y0376447D01*
X0365317Y0376608D01*
X0365437Y0376766D01*
X0365561Y0376920D01*
X0365689Y0377072D01*
X0365820Y0377220D01*
X0365955Y0377365D01*
X0366093Y0377507D01*
X0366235Y0377645D01*
X0366380Y0377780D01*
X0366528Y0377911D01*
X0366680Y0378039D01*
X0366834Y0378163D01*
X0366992Y0378283D01*
X0367153Y0378399D01*
X0367316Y0378511D01*
X0367482Y0378619D01*
X0367651Y0378723D01*
X0367822Y0378822D01*
X0367995Y0378918D01*
X0368171Y0379009D01*
X0368349Y0379096D01*
X0368529Y0379179D01*
X0368711Y0379257D01*
X0368895Y0379330D01*
X0369081Y0379399D01*
X0369268Y0379464D01*
X0369457Y0379523D01*
X0369647Y0379579D01*
X0369839Y0379629D01*
X0370032Y0379675D01*
X0370225Y0379716D01*
X0370420Y0379752D01*
X0370616Y0379784D01*
X0370812Y0379810D01*
X0371009Y0379832D01*
X0371206Y0379849D01*
X0371404Y0379861D01*
X0371602Y0379869D01*
X0371800Y0379871D01*
X0371998Y0379869D01*
X0372196Y0379861D01*
X0372394Y0379849D01*
X0372591Y0379832D01*
X0372788Y0379810D01*
X0372984Y0379784D01*
X0373180Y0379752D01*
X0373375Y0379716D01*
X0373568Y0379675D01*
X0373761Y0379629D01*
X0373953Y0379579D01*
X0374143Y0379523D01*
X0374332Y0379464D01*
X0374519Y0379399D01*
X0374705Y0379330D01*
X0374889Y0379257D01*
X0375071Y0379179D01*
X0375251Y0379096D01*
X0375429Y0379009D01*
X0375605Y0378918D01*
X0375778Y0378822D01*
X0375949Y0378723D01*
X0376118Y0378619D01*
X0376284Y0378511D01*
X0376447Y0378399D01*
X0376608Y0378283D01*
X0376766Y0378163D01*
X0376920Y0378039D01*
X0377072Y0377911D01*
X0377220Y0377780D01*
X0377365Y0377645D01*
X0377507Y0377507D01*
X0377645Y0377365D01*
X0377780Y0377220D01*
X0377911Y0377072D01*
X0378039Y0376920D01*
X0378163Y0376766D01*
X0378283Y0376608D01*
X0378399Y0376447D01*
X0378511Y0376284D01*
X0378619Y0376118D01*
X0378723Y0375949D01*
X0378822Y0375778D01*
X0378918Y0375605D01*
X0379009Y0375429D01*
X0379096Y0375251D01*
X0379179Y0375071D01*
X0379257Y0374889D01*
X0379330Y0374705D01*
X0379399Y0374519D01*
X0379464Y0374332D01*
X0379523Y0374143D01*
X0379579Y0373953D01*
X0379629Y0373761D01*
X0379675Y0373568D01*
X0379716Y0373375D01*
X0379752Y0373180D01*
X0379784Y0372984D01*
X0379810Y0372788D01*
X0379832Y0372591D01*
X0379849Y0372394D01*
X0379861Y0372196D01*
X0379869Y0371998D01*
X0379871Y0371800D01*
X0379869Y0371602D01*
X0379861Y0371404D01*
X0379849Y0371206D01*
X0379832Y0371009D01*
X0379810Y0370812D01*
X0379784Y0370616D01*
X0379752Y0370420D01*
X0379716Y0370225D01*
X0379675Y0370032D01*
X0379629Y0369839D01*
X0379579Y0369647D01*
X0379523Y0369457D01*
X0379464Y0369268D01*
X0379399Y0369081D01*
X0379330Y0368895D01*
X0379257Y0368711D01*
X0379179Y0368529D01*
X0379096Y0368349D01*
X0379009Y0368171D01*
X0378918Y0367995D01*
X0378822Y0367822D01*
X0378723Y0367651D01*
X0378619Y0367482D01*
X0378511Y0367316D01*
X0378399Y0367153D01*
X0378283Y0366992D01*
X0378163Y0366834D01*
X0378039Y0366680D01*
X0377911Y0366528D01*
X0377780Y0366380D01*
X0377645Y0366235D01*
X0377507Y0366093D01*
X0377365Y0365955D01*
X0377220Y0365820D01*
X0377072Y0365689D01*
X0376920Y0365561D01*
X0376766Y0365437D01*
X0376608Y0365317D01*
X0376447Y0365201D01*
X0376284Y0365089D01*
X0376118Y0364981D01*
X0375949Y0364877D01*
X0375778Y0364778D01*
X0375605Y0364682D01*
X0375429Y0364591D01*
X0375251Y0364504D01*
X0375071Y0364421D01*
X0374889Y0364343D01*
X0374705Y0364270D01*
X0374519Y0364201D01*
X0374332Y0364136D01*
X0374143Y0364077D01*
X0373953Y0364021D01*
X0373761Y0363971D01*
X0373568Y0363925D01*
X0373375Y0363884D01*
X0373180Y0363848D01*
X0372984Y0363816D01*
X0372788Y0363790D01*
X0372591Y0363768D01*
X0372394Y0363751D01*
X0372196Y0363739D01*
X0371998Y0363731D01*
X0371800Y0363729D01*
X0371602Y0363731D01*
X0371404Y0363739D01*
X0371206Y0363751D01*
X0371009Y0363768D01*
X0370812Y0363790D01*
X0370616Y0363816D01*
X0370420Y0363848D01*
X0370225Y0363884D01*
X0370032Y0363925D01*
X0369839Y0363971D01*
X0369647Y0364021D01*
X0369457Y0364077D01*
X0369268Y0364136D01*
X0369081Y0364201D01*
X0368895Y0364270D01*
X0368711Y0364343D01*
X0368529Y0364421D01*
X0368349Y0364504D01*
X0368171Y0364591D01*
X0367995Y0364682D01*
X0367822Y0364778D01*
X0367651Y0364877D01*
X0367482Y0364981D01*
X0367316Y0365089D01*
X0367153Y0365201D01*
X0366992Y0365317D01*
X0366834Y0365437D01*
X0366680Y0365561D01*
X0366528Y0365689D01*
X0366380Y0365820D01*
X0366235Y0365955D01*
X0366093Y0366093D01*
X0365955Y0366235D01*
X0365820Y0366380D01*
X0365689Y0366528D01*
X0365561Y0366680D01*
X0365437Y0366834D01*
X0365317Y0366992D01*
X0365201Y0367153D01*
X0365089Y0367316D01*
X0364981Y0367482D01*
X0364877Y0367651D01*
X0364778Y0367822D01*
X0364682Y0367995D01*
X0364591Y0368171D01*
X0364504Y0368349D01*
X0364421Y0368529D01*
X0364343Y0368711D01*
X0364270Y0368895D01*
X0364201Y0369081D01*
X0364136Y0369268D01*
X0364077Y0369457D01*
X0364021Y0369647D01*
X0363971Y0369839D01*
X0363925Y0370032D01*
X0363884Y0370225D01*
X0363848Y0370420D01*
X0363816Y0370616D01*
X0363790Y0370812D01*
X0363768Y0371009D01*
X0363751Y0371206D01*
X0363739Y0371404D01*
X0363731Y0371602D01*
X0363729Y0371800D01*
X0363729Y0026800D02*
X0363731Y0026998D01*
X0363739Y0027196D01*
X0363751Y0027394D01*
X0363768Y0027591D01*
X0363790Y0027788D01*
X0363816Y0027984D01*
X0363848Y0028180D01*
X0363884Y0028375D01*
X0363925Y0028568D01*
X0363971Y0028761D01*
X0364021Y0028953D01*
X0364077Y0029143D01*
X0364136Y0029332D01*
X0364201Y0029519D01*
X0364270Y0029705D01*
X0364343Y0029889D01*
X0364421Y0030071D01*
X0364504Y0030251D01*
X0364591Y0030429D01*
X0364682Y0030605D01*
X0364778Y0030778D01*
X0364877Y0030949D01*
X0364981Y0031118D01*
X0365089Y0031284D01*
X0365201Y0031447D01*
X0365317Y0031608D01*
X0365437Y0031766D01*
X0365561Y0031920D01*
X0365689Y0032072D01*
X0365820Y0032220D01*
X0365955Y0032365D01*
X0366093Y0032507D01*
X0366235Y0032645D01*
X0366380Y0032780D01*
X0366528Y0032911D01*
X0366680Y0033039D01*
X0366834Y0033163D01*
X0366992Y0033283D01*
X0367153Y0033399D01*
X0367316Y0033511D01*
X0367482Y0033619D01*
X0367651Y0033723D01*
X0367822Y0033822D01*
X0367995Y0033918D01*
X0368171Y0034009D01*
X0368349Y0034096D01*
X0368529Y0034179D01*
X0368711Y0034257D01*
X0368895Y0034330D01*
X0369081Y0034399D01*
X0369268Y0034464D01*
X0369457Y0034523D01*
X0369647Y0034579D01*
X0369839Y0034629D01*
X0370032Y0034675D01*
X0370225Y0034716D01*
X0370420Y0034752D01*
X0370616Y0034784D01*
X0370812Y0034810D01*
X0371009Y0034832D01*
X0371206Y0034849D01*
X0371404Y0034861D01*
X0371602Y0034869D01*
X0371800Y0034871D01*
X0371998Y0034869D01*
X0372196Y0034861D01*
X0372394Y0034849D01*
X0372591Y0034832D01*
X0372788Y0034810D01*
X0372984Y0034784D01*
X0373180Y0034752D01*
X0373375Y0034716D01*
X0373568Y0034675D01*
X0373761Y0034629D01*
X0373953Y0034579D01*
X0374143Y0034523D01*
X0374332Y0034464D01*
X0374519Y0034399D01*
X0374705Y0034330D01*
X0374889Y0034257D01*
X0375071Y0034179D01*
X0375251Y0034096D01*
X0375429Y0034009D01*
X0375605Y0033918D01*
X0375778Y0033822D01*
X0375949Y0033723D01*
X0376118Y0033619D01*
X0376284Y0033511D01*
X0376447Y0033399D01*
X0376608Y0033283D01*
X0376766Y0033163D01*
X0376920Y0033039D01*
X0377072Y0032911D01*
X0377220Y0032780D01*
X0377365Y0032645D01*
X0377507Y0032507D01*
X0377645Y0032365D01*
X0377780Y0032220D01*
X0377911Y0032072D01*
X0378039Y0031920D01*
X0378163Y0031766D01*
X0378283Y0031608D01*
X0378399Y0031447D01*
X0378511Y0031284D01*
X0378619Y0031118D01*
X0378723Y0030949D01*
X0378822Y0030778D01*
X0378918Y0030605D01*
X0379009Y0030429D01*
X0379096Y0030251D01*
X0379179Y0030071D01*
X0379257Y0029889D01*
X0379330Y0029705D01*
X0379399Y0029519D01*
X0379464Y0029332D01*
X0379523Y0029143D01*
X0379579Y0028953D01*
X0379629Y0028761D01*
X0379675Y0028568D01*
X0379716Y0028375D01*
X0379752Y0028180D01*
X0379784Y0027984D01*
X0379810Y0027788D01*
X0379832Y0027591D01*
X0379849Y0027394D01*
X0379861Y0027196D01*
X0379869Y0026998D01*
X0379871Y0026800D01*
X0379869Y0026602D01*
X0379861Y0026404D01*
X0379849Y0026206D01*
X0379832Y0026009D01*
X0379810Y0025812D01*
X0379784Y0025616D01*
X0379752Y0025420D01*
X0379716Y0025225D01*
X0379675Y0025032D01*
X0379629Y0024839D01*
X0379579Y0024647D01*
X0379523Y0024457D01*
X0379464Y0024268D01*
X0379399Y0024081D01*
X0379330Y0023895D01*
X0379257Y0023711D01*
X0379179Y0023529D01*
X0379096Y0023349D01*
X0379009Y0023171D01*
X0378918Y0022995D01*
X0378822Y0022822D01*
X0378723Y0022651D01*
X0378619Y0022482D01*
X0378511Y0022316D01*
X0378399Y0022153D01*
X0378283Y0021992D01*
X0378163Y0021834D01*
X0378039Y0021680D01*
X0377911Y0021528D01*
X0377780Y0021380D01*
X0377645Y0021235D01*
X0377507Y0021093D01*
X0377365Y0020955D01*
X0377220Y0020820D01*
X0377072Y0020689D01*
X0376920Y0020561D01*
X0376766Y0020437D01*
X0376608Y0020317D01*
X0376447Y0020201D01*
X0376284Y0020089D01*
X0376118Y0019981D01*
X0375949Y0019877D01*
X0375778Y0019778D01*
X0375605Y0019682D01*
X0375429Y0019591D01*
X0375251Y0019504D01*
X0375071Y0019421D01*
X0374889Y0019343D01*
X0374705Y0019270D01*
X0374519Y0019201D01*
X0374332Y0019136D01*
X0374143Y0019077D01*
X0373953Y0019021D01*
X0373761Y0018971D01*
X0373568Y0018925D01*
X0373375Y0018884D01*
X0373180Y0018848D01*
X0372984Y0018816D01*
X0372788Y0018790D01*
X0372591Y0018768D01*
X0372394Y0018751D01*
X0372196Y0018739D01*
X0371998Y0018731D01*
X0371800Y0018729D01*
X0371602Y0018731D01*
X0371404Y0018739D01*
X0371206Y0018751D01*
X0371009Y0018768D01*
X0370812Y0018790D01*
X0370616Y0018816D01*
X0370420Y0018848D01*
X0370225Y0018884D01*
X0370032Y0018925D01*
X0369839Y0018971D01*
X0369647Y0019021D01*
X0369457Y0019077D01*
X0369268Y0019136D01*
X0369081Y0019201D01*
X0368895Y0019270D01*
X0368711Y0019343D01*
X0368529Y0019421D01*
X0368349Y0019504D01*
X0368171Y0019591D01*
X0367995Y0019682D01*
X0367822Y0019778D01*
X0367651Y0019877D01*
X0367482Y0019981D01*
X0367316Y0020089D01*
X0367153Y0020201D01*
X0366992Y0020317D01*
X0366834Y0020437D01*
X0366680Y0020561D01*
X0366528Y0020689D01*
X0366380Y0020820D01*
X0366235Y0020955D01*
X0366093Y0021093D01*
X0365955Y0021235D01*
X0365820Y0021380D01*
X0365689Y0021528D01*
X0365561Y0021680D01*
X0365437Y0021834D01*
X0365317Y0021992D01*
X0365201Y0022153D01*
X0365089Y0022316D01*
X0364981Y0022482D01*
X0364877Y0022651D01*
X0364778Y0022822D01*
X0364682Y0022995D01*
X0364591Y0023171D01*
X0364504Y0023349D01*
X0364421Y0023529D01*
X0364343Y0023711D01*
X0364270Y0023895D01*
X0364201Y0024081D01*
X0364136Y0024268D01*
X0364077Y0024457D01*
X0364021Y0024647D01*
X0363971Y0024839D01*
X0363925Y0025032D01*
X0363884Y0025225D01*
X0363848Y0025420D01*
X0363816Y0025616D01*
X0363790Y0025812D01*
X0363768Y0026009D01*
X0363751Y0026206D01*
X0363739Y0026404D01*
X0363731Y0026602D01*
X0363729Y0026800D01*
D11*
X0301156Y0178550D02*
X0298154Y0178550D01*
X0299655Y0178550D02*
X0299655Y0183054D01*
X0298154Y0181553D01*
X0296553Y0182303D02*
X0295802Y0183054D01*
X0294301Y0183054D01*
X0293550Y0182303D01*
X0293550Y0179301D01*
X0294301Y0178550D01*
X0295802Y0178550D01*
X0296553Y0179301D01*
X0295802Y0188550D02*
X0294301Y0188550D01*
X0293550Y0189301D01*
X0293550Y0192303D01*
X0294301Y0193054D01*
X0295802Y0193054D01*
X0296553Y0192303D01*
X0298154Y0192303D02*
X0298905Y0193054D01*
X0300406Y0193054D01*
X0301156Y0192303D01*
X0301156Y0191553D01*
X0298154Y0188550D01*
X0301156Y0188550D01*
X0296553Y0189301D02*
X0295802Y0188550D01*
X0253906Y0232050D02*
X0254656Y0232801D01*
X0254656Y0235803D01*
X0253906Y0236554D01*
X0252405Y0236554D01*
X0251654Y0235803D01*
X0251654Y0235053D01*
X0252405Y0234302D01*
X0254656Y0234302D01*
X0253906Y0232050D02*
X0252405Y0232050D01*
X0251654Y0232801D01*
X0250053Y0232050D02*
X0248551Y0233551D01*
X0249302Y0233551D02*
X0247050Y0233551D01*
X0247050Y0232050D02*
X0247050Y0236554D01*
X0249302Y0236554D01*
X0250053Y0235803D01*
X0250053Y0234302D01*
X0249302Y0233551D01*
X0257050Y0242050D02*
X0257050Y0246554D01*
X0259302Y0246554D01*
X0260053Y0245803D01*
X0260053Y0244302D01*
X0259302Y0243551D01*
X0257050Y0243551D01*
X0258551Y0243551D02*
X0260053Y0242050D01*
X0261654Y0242801D02*
X0261654Y0243551D01*
X0262405Y0244302D01*
X0263906Y0244302D01*
X0264656Y0243551D01*
X0264656Y0242801D01*
X0263906Y0242050D01*
X0262405Y0242050D01*
X0261654Y0242801D01*
X0262405Y0244302D02*
X0261654Y0245053D01*
X0261654Y0245803D01*
X0262405Y0246554D01*
X0263906Y0246554D01*
X0264656Y0245803D01*
X0264656Y0245053D01*
X0263906Y0244302D01*
X0264550Y0244550D02*
X0264550Y0249054D01*
X0266802Y0249054D01*
X0267553Y0248303D01*
X0267553Y0246802D01*
X0266802Y0246051D01*
X0264550Y0246051D01*
X0266051Y0246051D02*
X0267553Y0244550D01*
X0269154Y0244550D02*
X0269154Y0245301D01*
X0272156Y0248303D01*
X0272156Y0249054D01*
X0269154Y0249054D01*
X0274550Y0254550D02*
X0274550Y0259054D01*
X0276802Y0259054D01*
X0277553Y0258303D01*
X0277553Y0256802D01*
X0276802Y0256051D01*
X0274550Y0256051D01*
X0276051Y0256051D02*
X0277553Y0254550D01*
X0279154Y0255301D02*
X0279905Y0254550D01*
X0281406Y0254550D01*
X0282156Y0255301D01*
X0282156Y0256051D01*
X0281406Y0256802D01*
X0279154Y0256802D01*
X0279154Y0255301D01*
X0279154Y0256802D02*
X0280655Y0258303D01*
X0282156Y0259054D01*
X0284550Y0264550D02*
X0284550Y0269054D01*
X0286802Y0269054D01*
X0287553Y0268303D01*
X0287553Y0266802D01*
X0286802Y0266051D01*
X0284550Y0266051D01*
X0286051Y0266051D02*
X0287553Y0264550D01*
X0289154Y0265301D02*
X0289905Y0264550D01*
X0291406Y0264550D01*
X0292156Y0265301D01*
X0292156Y0266802D01*
X0291406Y0267553D01*
X0290655Y0267553D01*
X0289154Y0266802D01*
X0289154Y0269054D01*
X0292156Y0269054D01*
X0294550Y0274550D02*
X0294550Y0279054D01*
X0296802Y0279054D01*
X0297553Y0278303D01*
X0297553Y0276802D01*
X0296802Y0276051D01*
X0294550Y0276051D01*
X0296051Y0276051D02*
X0297553Y0274550D01*
X0299154Y0276802D02*
X0302156Y0276802D01*
X0301406Y0279054D02*
X0299154Y0276802D01*
X0301406Y0274550D02*
X0301406Y0279054D01*
X0304550Y0284550D02*
X0304550Y0289054D01*
X0306802Y0289054D01*
X0307553Y0288303D01*
X0307553Y0286802D01*
X0306802Y0286051D01*
X0304550Y0286051D01*
X0306051Y0286051D02*
X0307553Y0284550D01*
X0309154Y0285301D02*
X0309905Y0284550D01*
X0311406Y0284550D01*
X0312156Y0285301D01*
X0312156Y0286051D01*
X0311406Y0286802D01*
X0310655Y0286802D01*
X0311406Y0286802D02*
X0312156Y0287553D01*
X0312156Y0288303D01*
X0311406Y0289054D01*
X0309905Y0289054D01*
X0309154Y0288303D01*
X0314550Y0294550D02*
X0314550Y0299054D01*
X0316802Y0299054D01*
X0317553Y0298303D01*
X0317553Y0296802D01*
X0316802Y0296051D01*
X0314550Y0296051D01*
X0316051Y0296051D02*
X0317553Y0294550D01*
X0319154Y0294550D02*
X0322156Y0297553D01*
X0322156Y0298303D01*
X0321406Y0299054D01*
X0319905Y0299054D01*
X0319154Y0298303D01*
X0319154Y0294550D02*
X0322156Y0294550D01*
X0165449Y0200803D02*
X0165449Y0197801D01*
X0164698Y0197050D01*
X0163197Y0197050D01*
X0162446Y0197801D01*
X0165449Y0200803D01*
X0164698Y0201554D01*
X0163197Y0201554D01*
X0162446Y0200803D01*
X0162446Y0197801D01*
X0160845Y0197050D02*
X0157842Y0197050D01*
X0159343Y0197050D02*
X0159343Y0201554D01*
X0157842Y0200053D01*
X0156241Y0200803D02*
X0156241Y0199302D01*
X0155490Y0198551D01*
X0153238Y0198551D01*
X0153238Y0197050D02*
X0153238Y0201554D01*
X0155490Y0201554D01*
X0156241Y0200803D01*
X0154739Y0198551D02*
X0156241Y0197050D01*
X0155449Y0207050D02*
X0152446Y0207050D01*
X0153947Y0207050D02*
X0153947Y0211554D01*
X0152446Y0210053D01*
X0150845Y0207050D02*
X0147842Y0207050D01*
X0149343Y0207050D02*
X0149343Y0211554D01*
X0147842Y0210053D01*
X0146241Y0210803D02*
X0145490Y0211554D01*
X0143238Y0211554D01*
X0143238Y0207050D01*
X0143238Y0208551D02*
X0145490Y0208551D01*
X0146241Y0209302D01*
X0146241Y0210803D01*
X0144739Y0208551D02*
X0146241Y0207050D01*
X0144946Y0224550D02*
X0147949Y0227553D01*
X0147949Y0228303D01*
X0147198Y0229054D01*
X0145697Y0229054D01*
X0144946Y0228303D01*
X0141843Y0229054D02*
X0141843Y0224550D01*
X0140342Y0224550D02*
X0143345Y0224550D01*
X0144946Y0224550D02*
X0147949Y0224550D01*
X0141843Y0229054D02*
X0140342Y0227553D01*
X0138741Y0228303D02*
X0138741Y0226802D01*
X0137990Y0226051D01*
X0135738Y0226051D01*
X0135738Y0224550D02*
X0135738Y0229054D01*
X0137990Y0229054D01*
X0138741Y0228303D01*
X0137239Y0226051D02*
X0138741Y0224550D01*
X0137198Y0234550D02*
X0135697Y0234550D01*
X0134946Y0235301D01*
X0133345Y0234550D02*
X0130342Y0234550D01*
X0131843Y0234550D02*
X0131843Y0239054D01*
X0130342Y0237553D01*
X0128741Y0238303D02*
X0128741Y0236802D01*
X0127990Y0236051D01*
X0125738Y0236051D01*
X0125738Y0234550D02*
X0125738Y0239054D01*
X0127990Y0239054D01*
X0128741Y0238303D01*
X0127239Y0236051D02*
X0128741Y0234550D01*
X0134946Y0238303D02*
X0135697Y0239054D01*
X0137198Y0239054D01*
X0137949Y0238303D01*
X0137949Y0237553D01*
X0137198Y0236802D01*
X0137949Y0236051D01*
X0137949Y0235301D01*
X0137198Y0234550D01*
X0137198Y0236802D02*
X0136447Y0236802D01*
X0127949Y0246802D02*
X0124946Y0246802D01*
X0127198Y0249054D01*
X0127198Y0244550D01*
X0123345Y0244550D02*
X0120342Y0244550D01*
X0121843Y0244550D02*
X0121843Y0249054D01*
X0120342Y0247553D01*
X0118741Y0248303D02*
X0118741Y0246802D01*
X0117990Y0246051D01*
X0115738Y0246051D01*
X0115738Y0244550D02*
X0115738Y0249054D01*
X0117990Y0249054D01*
X0118741Y0248303D01*
X0117239Y0246051D02*
X0118741Y0244550D01*
X0117198Y0254550D02*
X0115697Y0254550D01*
X0114946Y0255301D01*
X0114946Y0256802D02*
X0116447Y0257553D01*
X0117198Y0257553D01*
X0117949Y0256802D01*
X0117949Y0255301D01*
X0117198Y0254550D01*
X0114946Y0256802D02*
X0114946Y0259054D01*
X0117949Y0259054D01*
X0111843Y0259054D02*
X0111843Y0254550D01*
X0110342Y0254550D02*
X0113345Y0254550D01*
X0110342Y0257553D02*
X0111843Y0259054D01*
X0108741Y0258303D02*
X0108741Y0256802D01*
X0107990Y0256051D01*
X0105738Y0256051D01*
X0105738Y0254550D02*
X0105738Y0259054D01*
X0107990Y0259054D01*
X0108741Y0258303D01*
X0107239Y0256051D02*
X0108741Y0254550D01*
X0107198Y0264550D02*
X0107949Y0265301D01*
X0107949Y0266051D01*
X0107198Y0266802D01*
X0104946Y0266802D01*
X0104946Y0265301D01*
X0105697Y0264550D01*
X0107198Y0264550D01*
X0104946Y0266802D02*
X0106447Y0268303D01*
X0107949Y0269054D01*
X0101843Y0269054D02*
X0101843Y0264550D01*
X0100342Y0264550D02*
X0103345Y0264550D01*
X0100342Y0267553D02*
X0101843Y0269054D01*
X0098741Y0268303D02*
X0098741Y0266802D01*
X0097990Y0266051D01*
X0095738Y0266051D01*
X0095738Y0264550D02*
X0095738Y0269054D01*
X0097990Y0269054D01*
X0098741Y0268303D01*
X0097239Y0266051D02*
X0098741Y0264550D01*
X0097949Y0274550D02*
X0094946Y0274550D01*
X0096447Y0274550D02*
X0096447Y0279054D01*
X0094946Y0277553D01*
X0093345Y0278303D02*
X0093345Y0276802D01*
X0092594Y0276051D01*
X0090342Y0276051D01*
X0090342Y0274550D02*
X0090342Y0279054D01*
X0092594Y0279054D01*
X0093345Y0278303D01*
X0091843Y0276051D02*
X0093345Y0274550D01*
X0090406Y0223054D02*
X0091156Y0222303D01*
X0091156Y0221553D01*
X0090406Y0220802D01*
X0091156Y0220051D01*
X0091156Y0219301D01*
X0090406Y0218550D01*
X0088905Y0218550D01*
X0088154Y0219301D01*
X0086553Y0219301D02*
X0085802Y0218550D01*
X0084301Y0218550D01*
X0083550Y0219301D01*
X0083550Y0222303D01*
X0084301Y0223054D01*
X0085802Y0223054D01*
X0086553Y0222303D01*
X0088154Y0222303D02*
X0088905Y0223054D01*
X0090406Y0223054D01*
X0090406Y0220802D02*
X0089655Y0220802D01*
X0090406Y0213054D02*
X0088154Y0210802D01*
X0091156Y0210802D01*
X0090406Y0208550D02*
X0090406Y0213054D01*
X0086553Y0212303D02*
X0085802Y0213054D01*
X0084301Y0213054D01*
X0083550Y0212303D01*
X0083550Y0209301D01*
X0084301Y0208550D01*
X0085802Y0208550D01*
X0086553Y0209301D01*
X0104997Y0135749D02*
X0107999Y0132746D01*
X0108750Y0133497D01*
X0108750Y0134998D01*
X0107999Y0135749D01*
X0104997Y0135749D01*
X0104246Y0134998D01*
X0104246Y0133497D01*
X0104997Y0132746D01*
X0107999Y0132746D01*
X0108750Y0131145D02*
X0108750Y0128142D01*
X0108750Y0129643D02*
X0104246Y0129643D01*
X0105747Y0128142D01*
X0164246Y0133497D02*
X0164997Y0132746D01*
X0165747Y0132746D01*
X0166498Y0133497D01*
X0166498Y0135749D01*
X0164997Y0135749D02*
X0164246Y0134998D01*
X0164246Y0133497D01*
X0164997Y0135749D02*
X0167999Y0135749D01*
X0168750Y0134998D01*
X0168750Y0133497D01*
X0167999Y0132746D01*
X0179546Y0129260D02*
X0179546Y0126258D01*
X0179546Y0129260D02*
X0180297Y0129260D01*
X0183299Y0126258D01*
X0184050Y0126258D01*
X0184050Y0124656D02*
X0184050Y0121654D01*
X0184050Y0123155D02*
X0179546Y0123155D01*
X0181047Y0121654D01*
X0180297Y0120053D02*
X0181798Y0120053D01*
X0182549Y0119302D01*
X0182549Y0117050D01*
X0184050Y0117050D02*
X0179546Y0117050D01*
X0179546Y0119302D01*
X0180297Y0120053D01*
X0182549Y0118551D02*
X0184050Y0120053D01*
X0087299Y0341342D02*
X0088050Y0342093D01*
X0088050Y0343594D01*
X0087299Y0344345D01*
X0087299Y0345946D02*
X0088050Y0346697D01*
X0088050Y0348198D01*
X0087299Y0348949D01*
X0086549Y0348949D01*
X0085798Y0348198D01*
X0085798Y0345946D01*
X0087299Y0345946D01*
X0085798Y0345946D02*
X0084297Y0347447D01*
X0083546Y0348949D01*
X0084297Y0344345D02*
X0083546Y0343594D01*
X0083546Y0342093D01*
X0084297Y0341342D01*
X0087299Y0341342D01*
X0078050Y0342093D02*
X0078050Y0343594D01*
X0077299Y0344345D01*
X0077299Y0345946D02*
X0078050Y0346697D01*
X0078050Y0348198D01*
X0077299Y0348949D01*
X0075798Y0348949D01*
X0075047Y0348198D01*
X0075047Y0347447D01*
X0075798Y0345946D01*
X0073546Y0345946D01*
X0073546Y0348949D01*
X0074297Y0344345D02*
X0073546Y0343594D01*
X0073546Y0342093D01*
X0074297Y0341342D01*
X0077299Y0341342D01*
X0078050Y0342093D01*
D12*
X0067906Y0374000D02*
X0066371Y0374000D01*
X0065604Y0374767D01*
X0065604Y0375535D01*
X0066371Y0376302D01*
X0067906Y0376302D01*
X0068673Y0375535D01*
X0068673Y0374767D01*
X0067906Y0374000D01*
X0067906Y0376302D02*
X0068673Y0377069D01*
X0068673Y0377837D01*
X0067906Y0378604D01*
X0066371Y0378604D01*
X0065604Y0377837D01*
X0065604Y0377069D01*
X0066371Y0376302D01*
X0064069Y0378604D02*
X0061000Y0374000D01*
X0064069Y0374000D02*
X0061000Y0378604D01*
X0091000Y0378604D02*
X0094069Y0374000D01*
X0095604Y0374000D02*
X0098673Y0374000D01*
X0097139Y0374000D02*
X0097139Y0378604D01*
X0095604Y0377069D01*
X0094069Y0378604D02*
X0091000Y0374000D01*
X0181000Y0374000D02*
X0184069Y0378604D01*
X0185604Y0377837D02*
X0186371Y0378604D01*
X0187906Y0378604D01*
X0188673Y0377837D01*
X0188673Y0377069D01*
X0187906Y0376302D01*
X0188673Y0375535D01*
X0188673Y0374767D01*
X0187906Y0374000D01*
X0186371Y0374000D01*
X0185604Y0374767D01*
X0184069Y0374000D02*
X0181000Y0378604D01*
X0187139Y0376302D02*
X0187906Y0376302D01*
X0231000Y0374000D02*
X0234069Y0378604D01*
X0235604Y0377837D02*
X0236371Y0378604D01*
X0237906Y0378604D01*
X0238673Y0377837D01*
X0238673Y0377069D01*
X0235604Y0374000D01*
X0238673Y0374000D01*
X0234069Y0374000D02*
X0231000Y0378604D01*
X0321000Y0378604D02*
X0324069Y0374000D01*
X0325604Y0374767D02*
X0326371Y0374000D01*
X0327906Y0374000D01*
X0328673Y0374767D01*
X0328673Y0375535D01*
X0327906Y0376302D01*
X0325604Y0376302D01*
X0325604Y0374767D01*
X0325604Y0376302D02*
X0327139Y0377837D01*
X0328673Y0378604D01*
X0324069Y0378604D02*
X0321000Y0374000D01*
X0271901Y0181604D02*
X0268831Y0181604D01*
X0267297Y0181604D02*
X0267297Y0177000D01*
X0264227Y0181604D01*
X0264227Y0177000D01*
X0262693Y0177767D02*
X0262693Y0180837D01*
X0259624Y0177767D01*
X0260391Y0177000D01*
X0261926Y0177000D01*
X0262693Y0177767D01*
X0259624Y0177767D02*
X0259624Y0180837D01*
X0260391Y0181604D01*
X0261926Y0181604D01*
X0262693Y0180837D01*
X0258089Y0179302D02*
X0255020Y0179302D01*
X0257322Y0181604D01*
X0257322Y0177000D01*
X0253485Y0177767D02*
X0253485Y0180837D01*
X0252718Y0181604D01*
X0251183Y0181604D01*
X0250416Y0180837D01*
X0250416Y0180069D01*
X0251183Y0179302D01*
X0253485Y0179302D01*
X0253485Y0177767D02*
X0252718Y0177000D01*
X0251183Y0177000D01*
X0250416Y0177767D01*
X0248881Y0177767D02*
X0248114Y0177000D01*
X0246579Y0177000D01*
X0245812Y0177767D01*
X0244277Y0177767D02*
X0243510Y0177000D01*
X0241975Y0177000D01*
X0241208Y0177767D01*
X0241208Y0180837D01*
X0241975Y0181604D01*
X0243510Y0181604D01*
X0244277Y0180837D01*
X0245812Y0181604D02*
X0245812Y0179302D01*
X0247346Y0180069D01*
X0248114Y0180069D01*
X0248881Y0179302D01*
X0248881Y0177767D01*
X0248881Y0181604D02*
X0245812Y0181604D01*
X0239673Y0177000D02*
X0236604Y0177000D01*
X0236604Y0181604D01*
X0235069Y0181604D02*
X0232000Y0181604D01*
X0233535Y0181604D02*
X0233535Y0177000D01*
X0204277Y0177000D02*
X0201208Y0177000D01*
X0202742Y0177000D02*
X0202742Y0181604D01*
X0201208Y0180069D01*
X0199673Y0180837D02*
X0198906Y0181604D01*
X0197371Y0181604D01*
X0196604Y0180837D01*
X0196604Y0180069D01*
X0197371Y0179302D01*
X0198906Y0179302D01*
X0199673Y0178535D01*
X0199673Y0177767D01*
X0198906Y0177000D01*
X0197371Y0177000D01*
X0196604Y0177767D01*
X0195069Y0177767D02*
X0195069Y0181604D01*
X0192000Y0181604D02*
X0192000Y0177767D01*
X0192767Y0177000D01*
X0194302Y0177000D01*
X0195069Y0177767D01*
X0198139Y0176233D02*
X0198139Y0182371D01*
X0270366Y0181604D02*
X0270366Y0177000D01*
X0078600Y0208792D02*
X0073996Y0211861D01*
X0073996Y0213396D02*
X0073996Y0216465D01*
X0074763Y0216465D01*
X0077833Y0213396D01*
X0078600Y0213396D01*
X0078600Y0211861D02*
X0073996Y0208792D01*
X0057298Y0113673D02*
X0057298Y0110604D01*
X0054996Y0112906D01*
X0059600Y0112906D01*
X0059600Y0109069D02*
X0054996Y0106000D01*
X0054996Y0109069D02*
X0059600Y0106000D01*
X0073996Y0096465D02*
X0073996Y0093396D01*
X0076298Y0093396D01*
X0075531Y0094931D01*
X0075531Y0095698D01*
X0076298Y0096465D01*
X0077833Y0096465D01*
X0078600Y0095698D01*
X0078600Y0094163D01*
X0077833Y0093396D01*
X0078600Y0091861D02*
X0073996Y0088792D01*
X0073996Y0091861D02*
X0078600Y0088792D01*
D13*
X0071131Y0096879D02*
X0071131Y0016721D01*
X0018335Y0026800D02*
X0018338Y0027008D01*
X0018345Y0027215D01*
X0018358Y0027423D01*
X0018376Y0027630D01*
X0018399Y0027836D01*
X0018427Y0028042D01*
X0018460Y0028247D01*
X0018498Y0028451D01*
X0018541Y0028655D01*
X0018589Y0028857D01*
X0018642Y0029058D01*
X0018700Y0029257D01*
X0018762Y0029455D01*
X0018830Y0029652D01*
X0018902Y0029847D01*
X0018979Y0030039D01*
X0019061Y0030230D01*
X0019148Y0030419D01*
X0019239Y0030606D01*
X0019335Y0030790D01*
X0019435Y0030972D01*
X0019539Y0031152D01*
X0019648Y0031329D01*
X0019762Y0031503D01*
X0019879Y0031674D01*
X0020001Y0031843D01*
X0020127Y0032008D01*
X0020256Y0032170D01*
X0020390Y0032329D01*
X0020528Y0032485D01*
X0020669Y0032637D01*
X0020814Y0032786D01*
X0020963Y0032931D01*
X0021115Y0033072D01*
X0021271Y0033210D01*
X0021430Y0033344D01*
X0021592Y0033473D01*
X0021757Y0033599D01*
X0021926Y0033721D01*
X0022097Y0033838D01*
X0022271Y0033952D01*
X0022448Y0034061D01*
X0022628Y0034165D01*
X0022810Y0034265D01*
X0022994Y0034361D01*
X0023181Y0034452D01*
X0023370Y0034539D01*
X0023561Y0034621D01*
X0023753Y0034698D01*
X0023948Y0034770D01*
X0024145Y0034838D01*
X0024343Y0034900D01*
X0024542Y0034958D01*
X0024743Y0035011D01*
X0024945Y0035059D01*
X0025149Y0035102D01*
X0025353Y0035140D01*
X0025558Y0035173D01*
X0025764Y0035201D01*
X0025970Y0035224D01*
X0026177Y0035242D01*
X0026385Y0035255D01*
X0026592Y0035262D01*
X0026800Y0035265D01*
X0027008Y0035262D01*
X0027215Y0035255D01*
X0027423Y0035242D01*
X0027630Y0035224D01*
X0027836Y0035201D01*
X0028042Y0035173D01*
X0028247Y0035140D01*
X0028451Y0035102D01*
X0028655Y0035059D01*
X0028857Y0035011D01*
X0029058Y0034958D01*
X0029257Y0034900D01*
X0029455Y0034838D01*
X0029652Y0034770D01*
X0029847Y0034698D01*
X0030039Y0034621D01*
X0030230Y0034539D01*
X0030419Y0034452D01*
X0030606Y0034361D01*
X0030790Y0034265D01*
X0030972Y0034165D01*
X0031152Y0034061D01*
X0031329Y0033952D01*
X0031503Y0033838D01*
X0031674Y0033721D01*
X0031843Y0033599D01*
X0032008Y0033473D01*
X0032170Y0033344D01*
X0032329Y0033210D01*
X0032485Y0033072D01*
X0032637Y0032931D01*
X0032786Y0032786D01*
X0032931Y0032637D01*
X0033072Y0032485D01*
X0033210Y0032329D01*
X0033344Y0032170D01*
X0033473Y0032008D01*
X0033599Y0031843D01*
X0033721Y0031674D01*
X0033838Y0031503D01*
X0033952Y0031329D01*
X0034061Y0031152D01*
X0034165Y0030972D01*
X0034265Y0030790D01*
X0034361Y0030606D01*
X0034452Y0030419D01*
X0034539Y0030230D01*
X0034621Y0030039D01*
X0034698Y0029847D01*
X0034770Y0029652D01*
X0034838Y0029455D01*
X0034900Y0029257D01*
X0034958Y0029058D01*
X0035011Y0028857D01*
X0035059Y0028655D01*
X0035102Y0028451D01*
X0035140Y0028247D01*
X0035173Y0028042D01*
X0035201Y0027836D01*
X0035224Y0027630D01*
X0035242Y0027423D01*
X0035255Y0027215D01*
X0035262Y0027008D01*
X0035265Y0026800D01*
X0035262Y0026592D01*
X0035255Y0026385D01*
X0035242Y0026177D01*
X0035224Y0025970D01*
X0035201Y0025764D01*
X0035173Y0025558D01*
X0035140Y0025353D01*
X0035102Y0025149D01*
X0035059Y0024945D01*
X0035011Y0024743D01*
X0034958Y0024542D01*
X0034900Y0024343D01*
X0034838Y0024145D01*
X0034770Y0023948D01*
X0034698Y0023753D01*
X0034621Y0023561D01*
X0034539Y0023370D01*
X0034452Y0023181D01*
X0034361Y0022994D01*
X0034265Y0022810D01*
X0034165Y0022628D01*
X0034061Y0022448D01*
X0033952Y0022271D01*
X0033838Y0022097D01*
X0033721Y0021926D01*
X0033599Y0021757D01*
X0033473Y0021592D01*
X0033344Y0021430D01*
X0033210Y0021271D01*
X0033072Y0021115D01*
X0032931Y0020963D01*
X0032786Y0020814D01*
X0032637Y0020669D01*
X0032485Y0020528D01*
X0032329Y0020390D01*
X0032170Y0020256D01*
X0032008Y0020127D01*
X0031843Y0020001D01*
X0031674Y0019879D01*
X0031503Y0019762D01*
X0031329Y0019648D01*
X0031152Y0019539D01*
X0030972Y0019435D01*
X0030790Y0019335D01*
X0030606Y0019239D01*
X0030419Y0019148D01*
X0030230Y0019061D01*
X0030039Y0018979D01*
X0029847Y0018902D01*
X0029652Y0018830D01*
X0029455Y0018762D01*
X0029257Y0018700D01*
X0029058Y0018642D01*
X0028857Y0018589D01*
X0028655Y0018541D01*
X0028451Y0018498D01*
X0028247Y0018460D01*
X0028042Y0018427D01*
X0027836Y0018399D01*
X0027630Y0018376D01*
X0027423Y0018358D01*
X0027215Y0018345D01*
X0027008Y0018338D01*
X0026800Y0018335D01*
X0026592Y0018338D01*
X0026385Y0018345D01*
X0026177Y0018358D01*
X0025970Y0018376D01*
X0025764Y0018399D01*
X0025558Y0018427D01*
X0025353Y0018460D01*
X0025149Y0018498D01*
X0024945Y0018541D01*
X0024743Y0018589D01*
X0024542Y0018642D01*
X0024343Y0018700D01*
X0024145Y0018762D01*
X0023948Y0018830D01*
X0023753Y0018902D01*
X0023561Y0018979D01*
X0023370Y0019061D01*
X0023181Y0019148D01*
X0022994Y0019239D01*
X0022810Y0019335D01*
X0022628Y0019435D01*
X0022448Y0019539D01*
X0022271Y0019648D01*
X0022097Y0019762D01*
X0021926Y0019879D01*
X0021757Y0020001D01*
X0021592Y0020127D01*
X0021430Y0020256D01*
X0021271Y0020390D01*
X0021115Y0020528D01*
X0020963Y0020669D01*
X0020814Y0020814D01*
X0020669Y0020963D01*
X0020528Y0021115D01*
X0020390Y0021271D01*
X0020256Y0021430D01*
X0020127Y0021592D01*
X0020001Y0021757D01*
X0019879Y0021926D01*
X0019762Y0022097D01*
X0019648Y0022271D01*
X0019539Y0022448D01*
X0019435Y0022628D01*
X0019335Y0022810D01*
X0019239Y0022994D01*
X0019148Y0023181D01*
X0019061Y0023370D01*
X0018979Y0023561D01*
X0018902Y0023753D01*
X0018830Y0023948D01*
X0018762Y0024145D01*
X0018700Y0024343D01*
X0018642Y0024542D01*
X0018589Y0024743D01*
X0018541Y0024945D01*
X0018498Y0025149D01*
X0018460Y0025353D01*
X0018427Y0025558D01*
X0018399Y0025764D01*
X0018376Y0025970D01*
X0018358Y0026177D01*
X0018345Y0026385D01*
X0018338Y0026592D01*
X0018335Y0026800D01*
X0009100Y0026800D02*
X0009105Y0027234D01*
X0009121Y0027668D01*
X0009148Y0028102D01*
X0009185Y0028535D01*
X0009233Y0028967D01*
X0009292Y0029397D01*
X0009361Y0029826D01*
X0009440Y0030253D01*
X0009530Y0030678D01*
X0009630Y0031101D01*
X0009741Y0031521D01*
X0009862Y0031938D01*
X0009993Y0032352D01*
X0010135Y0032763D01*
X0010286Y0033170D01*
X0010447Y0033573D01*
X0010618Y0033973D01*
X0010799Y0034368D01*
X0010990Y0034758D01*
X0011190Y0035144D01*
X0011399Y0035524D01*
X0011618Y0035900D01*
X0011846Y0036269D01*
X0012083Y0036634D01*
X0012329Y0036992D01*
X0012583Y0037344D01*
X0012846Y0037690D01*
X0013118Y0038029D01*
X0013397Y0038361D01*
X0013685Y0038687D01*
X0013981Y0039005D01*
X0014284Y0039316D01*
X0014595Y0039619D01*
X0014913Y0039915D01*
X0015239Y0040203D01*
X0015571Y0040482D01*
X0015910Y0040754D01*
X0016256Y0041017D01*
X0016608Y0041271D01*
X0016966Y0041517D01*
X0017331Y0041754D01*
X0017700Y0041982D01*
X0018076Y0042201D01*
X0018456Y0042410D01*
X0018842Y0042610D01*
X0019232Y0042801D01*
X0019627Y0042982D01*
X0020027Y0043153D01*
X0020430Y0043314D01*
X0020837Y0043465D01*
X0021248Y0043607D01*
X0021662Y0043738D01*
X0022079Y0043859D01*
X0022499Y0043970D01*
X0022922Y0044070D01*
X0023347Y0044160D01*
X0023774Y0044239D01*
X0024203Y0044308D01*
X0024633Y0044367D01*
X0025065Y0044415D01*
X0025498Y0044452D01*
X0025932Y0044479D01*
X0026366Y0044495D01*
X0026800Y0044500D01*
X0027234Y0044495D01*
X0027668Y0044479D01*
X0028102Y0044452D01*
X0028535Y0044415D01*
X0028967Y0044367D01*
X0029397Y0044308D01*
X0029826Y0044239D01*
X0030253Y0044160D01*
X0030678Y0044070D01*
X0031101Y0043970D01*
X0031521Y0043859D01*
X0031938Y0043738D01*
X0032352Y0043607D01*
X0032763Y0043465D01*
X0033170Y0043314D01*
X0033573Y0043153D01*
X0033973Y0042982D01*
X0034368Y0042801D01*
X0034758Y0042610D01*
X0035144Y0042410D01*
X0035524Y0042201D01*
X0035900Y0041982D01*
X0036269Y0041754D01*
X0036634Y0041517D01*
X0036992Y0041271D01*
X0037344Y0041017D01*
X0037690Y0040754D01*
X0038029Y0040482D01*
X0038361Y0040203D01*
X0038687Y0039915D01*
X0039005Y0039619D01*
X0039316Y0039316D01*
X0039619Y0039005D01*
X0039915Y0038687D01*
X0040203Y0038361D01*
X0040482Y0038029D01*
X0040754Y0037690D01*
X0041017Y0037344D01*
X0041271Y0036992D01*
X0041517Y0036634D01*
X0041754Y0036269D01*
X0041982Y0035900D01*
X0042201Y0035524D01*
X0042410Y0035144D01*
X0042610Y0034758D01*
X0042801Y0034368D01*
X0042982Y0033973D01*
X0043153Y0033573D01*
X0043314Y0033170D01*
X0043465Y0032763D01*
X0043607Y0032352D01*
X0043738Y0031938D01*
X0043859Y0031521D01*
X0043970Y0031101D01*
X0044070Y0030678D01*
X0044160Y0030253D01*
X0044239Y0029826D01*
X0044308Y0029397D01*
X0044367Y0028967D01*
X0044415Y0028535D01*
X0044452Y0028102D01*
X0044479Y0027668D01*
X0044495Y0027234D01*
X0044500Y0026800D01*
X0044495Y0026366D01*
X0044479Y0025932D01*
X0044452Y0025498D01*
X0044415Y0025065D01*
X0044367Y0024633D01*
X0044308Y0024203D01*
X0044239Y0023774D01*
X0044160Y0023347D01*
X0044070Y0022922D01*
X0043970Y0022499D01*
X0043859Y0022079D01*
X0043738Y0021662D01*
X0043607Y0021248D01*
X0043465Y0020837D01*
X0043314Y0020430D01*
X0043153Y0020027D01*
X0042982Y0019627D01*
X0042801Y0019232D01*
X0042610Y0018842D01*
X0042410Y0018456D01*
X0042201Y0018076D01*
X0041982Y0017700D01*
X0041754Y0017331D01*
X0041517Y0016966D01*
X0041271Y0016608D01*
X0041017Y0016256D01*
X0040754Y0015910D01*
X0040482Y0015571D01*
X0040203Y0015239D01*
X0039915Y0014913D01*
X0039619Y0014595D01*
X0039316Y0014284D01*
X0039005Y0013981D01*
X0038687Y0013685D01*
X0038361Y0013397D01*
X0038029Y0013118D01*
X0037690Y0012846D01*
X0037344Y0012583D01*
X0036992Y0012329D01*
X0036634Y0012083D01*
X0036269Y0011846D01*
X0035900Y0011618D01*
X0035524Y0011399D01*
X0035144Y0011190D01*
X0034758Y0010990D01*
X0034368Y0010799D01*
X0033973Y0010618D01*
X0033573Y0010447D01*
X0033170Y0010286D01*
X0032763Y0010135D01*
X0032352Y0009993D01*
X0031938Y0009862D01*
X0031521Y0009741D01*
X0031101Y0009630D01*
X0030678Y0009530D01*
X0030253Y0009440D01*
X0029826Y0009361D01*
X0029397Y0009292D01*
X0028967Y0009233D01*
X0028535Y0009185D01*
X0028102Y0009148D01*
X0027668Y0009121D01*
X0027234Y0009105D01*
X0026800Y0009100D01*
X0026366Y0009105D01*
X0025932Y0009121D01*
X0025498Y0009148D01*
X0025065Y0009185D01*
X0024633Y0009233D01*
X0024203Y0009292D01*
X0023774Y0009361D01*
X0023347Y0009440D01*
X0022922Y0009530D01*
X0022499Y0009630D01*
X0022079Y0009741D01*
X0021662Y0009862D01*
X0021248Y0009993D01*
X0020837Y0010135D01*
X0020430Y0010286D01*
X0020027Y0010447D01*
X0019627Y0010618D01*
X0019232Y0010799D01*
X0018842Y0010990D01*
X0018456Y0011190D01*
X0018076Y0011399D01*
X0017700Y0011618D01*
X0017331Y0011846D01*
X0016966Y0012083D01*
X0016608Y0012329D01*
X0016256Y0012583D01*
X0015910Y0012846D01*
X0015571Y0013118D01*
X0015239Y0013397D01*
X0014913Y0013685D01*
X0014595Y0013981D01*
X0014284Y0014284D01*
X0013981Y0014595D01*
X0013685Y0014913D01*
X0013397Y0015239D01*
X0013118Y0015571D01*
X0012846Y0015910D01*
X0012583Y0016256D01*
X0012329Y0016608D01*
X0012083Y0016966D01*
X0011846Y0017331D01*
X0011618Y0017700D01*
X0011399Y0018076D01*
X0011190Y0018456D01*
X0010990Y0018842D01*
X0010799Y0019232D01*
X0010618Y0019627D01*
X0010447Y0020027D01*
X0010286Y0020430D01*
X0010135Y0020837D01*
X0009993Y0021248D01*
X0009862Y0021662D01*
X0009741Y0022079D01*
X0009630Y0022499D01*
X0009530Y0022922D01*
X0009440Y0023347D01*
X0009361Y0023774D01*
X0009292Y0024203D01*
X0009233Y0024633D01*
X0009185Y0025065D01*
X0009148Y0025498D01*
X0009121Y0025932D01*
X0009105Y0026366D01*
X0009100Y0026800D01*
X0062469Y0106721D02*
X0062469Y0186879D01*
X0071131Y0196721D02*
X0071131Y0216879D01*
X0082300Y0215800D02*
X0082300Y0207800D01*
X0082302Y0207740D01*
X0082307Y0207679D01*
X0082316Y0207620D01*
X0082329Y0207561D01*
X0082345Y0207502D01*
X0082365Y0207445D01*
X0082388Y0207390D01*
X0082415Y0207335D01*
X0082444Y0207283D01*
X0082477Y0207232D01*
X0082513Y0207183D01*
X0082551Y0207137D01*
X0082593Y0207093D01*
X0082637Y0207051D01*
X0082683Y0207013D01*
X0082732Y0206977D01*
X0082783Y0206944D01*
X0082835Y0206915D01*
X0082890Y0206888D01*
X0082945Y0206865D01*
X0083002Y0206845D01*
X0083061Y0206829D01*
X0083120Y0206816D01*
X0083179Y0206807D01*
X0083240Y0206802D01*
X0083300Y0206800D01*
X0110300Y0206800D01*
X0083300Y0206800D01*
X0083240Y0206798D01*
X0083179Y0206793D01*
X0083120Y0206784D01*
X0083061Y0206771D01*
X0083002Y0206755D01*
X0082945Y0206735D01*
X0082890Y0206712D01*
X0082835Y0206685D01*
X0082783Y0206656D01*
X0082732Y0206623D01*
X0082683Y0206587D01*
X0082637Y0206549D01*
X0082593Y0206507D01*
X0082551Y0206463D01*
X0082513Y0206417D01*
X0082477Y0206368D01*
X0082444Y0206317D01*
X0082415Y0206265D01*
X0082388Y0206210D01*
X0082365Y0206155D01*
X0082345Y0206098D01*
X0082329Y0206039D01*
X0082316Y0205980D01*
X0082307Y0205921D01*
X0082302Y0205860D01*
X0082300Y0205800D01*
X0082300Y0197800D01*
X0082302Y0197740D01*
X0082307Y0197679D01*
X0082316Y0197620D01*
X0082329Y0197561D01*
X0082345Y0197502D01*
X0082365Y0197445D01*
X0082388Y0197390D01*
X0082415Y0197335D01*
X0082444Y0197283D01*
X0082477Y0197232D01*
X0082513Y0197183D01*
X0082551Y0197137D01*
X0082593Y0197093D01*
X0082637Y0197051D01*
X0082683Y0197013D01*
X0082732Y0196977D01*
X0082783Y0196944D01*
X0082835Y0196915D01*
X0082890Y0196888D01*
X0082945Y0196865D01*
X0083002Y0196845D01*
X0083061Y0196829D01*
X0083120Y0196816D01*
X0083179Y0196807D01*
X0083240Y0196802D01*
X0083300Y0196800D01*
X0110300Y0196800D01*
X0110360Y0196802D01*
X0110421Y0196807D01*
X0110480Y0196816D01*
X0110539Y0196829D01*
X0110598Y0196845D01*
X0110655Y0196865D01*
X0110710Y0196888D01*
X0110765Y0196915D01*
X0110817Y0196944D01*
X0110868Y0196977D01*
X0110917Y0197013D01*
X0110963Y0197051D01*
X0111007Y0197093D01*
X0111049Y0197137D01*
X0111087Y0197183D01*
X0111123Y0197232D01*
X0111156Y0197283D01*
X0111185Y0197335D01*
X0111212Y0197390D01*
X0111235Y0197445D01*
X0111255Y0197502D01*
X0111271Y0197561D01*
X0111284Y0197620D01*
X0111293Y0197679D01*
X0111298Y0197740D01*
X0111300Y0197800D01*
X0111300Y0205800D01*
X0111298Y0205860D01*
X0111293Y0205921D01*
X0111284Y0205980D01*
X0111271Y0206039D01*
X0111255Y0206098D01*
X0111235Y0206155D01*
X0111212Y0206210D01*
X0111185Y0206265D01*
X0111156Y0206317D01*
X0111123Y0206368D01*
X0111087Y0206417D01*
X0111049Y0206463D01*
X0111007Y0206507D01*
X0110963Y0206549D01*
X0110917Y0206587D01*
X0110868Y0206623D01*
X0110817Y0206656D01*
X0110765Y0206685D01*
X0110710Y0206712D01*
X0110655Y0206735D01*
X0110598Y0206755D01*
X0110539Y0206771D01*
X0110480Y0206784D01*
X0110421Y0206793D01*
X0110360Y0206798D01*
X0110300Y0206800D01*
X0110360Y0206802D01*
X0110421Y0206807D01*
X0110480Y0206816D01*
X0110539Y0206829D01*
X0110598Y0206845D01*
X0110655Y0206865D01*
X0110710Y0206888D01*
X0110765Y0206915D01*
X0110817Y0206944D01*
X0110868Y0206977D01*
X0110917Y0207013D01*
X0110963Y0207051D01*
X0111007Y0207093D01*
X0111049Y0207137D01*
X0111087Y0207183D01*
X0111123Y0207232D01*
X0111156Y0207283D01*
X0111185Y0207335D01*
X0111212Y0207390D01*
X0111235Y0207445D01*
X0111255Y0207502D01*
X0111271Y0207561D01*
X0111284Y0207620D01*
X0111293Y0207679D01*
X0111298Y0207740D01*
X0111300Y0207800D01*
X0111300Y0215800D01*
X0111298Y0215860D01*
X0111293Y0215921D01*
X0111284Y0215980D01*
X0111271Y0216039D01*
X0111255Y0216098D01*
X0111235Y0216155D01*
X0111212Y0216210D01*
X0111185Y0216265D01*
X0111156Y0216317D01*
X0111123Y0216368D01*
X0111087Y0216417D01*
X0111049Y0216463D01*
X0111007Y0216507D01*
X0110963Y0216549D01*
X0110917Y0216587D01*
X0110868Y0216623D01*
X0110817Y0216656D01*
X0110765Y0216685D01*
X0110710Y0216712D01*
X0110655Y0216735D01*
X0110598Y0216755D01*
X0110539Y0216771D01*
X0110480Y0216784D01*
X0110421Y0216793D01*
X0110360Y0216798D01*
X0110300Y0216800D01*
X0083300Y0216800D01*
X0083240Y0216798D01*
X0083179Y0216793D01*
X0083120Y0216784D01*
X0083061Y0216771D01*
X0083002Y0216755D01*
X0082945Y0216735D01*
X0082890Y0216712D01*
X0082835Y0216685D01*
X0082783Y0216656D01*
X0082732Y0216623D01*
X0082683Y0216587D01*
X0082637Y0216549D01*
X0082593Y0216507D01*
X0082551Y0216463D01*
X0082513Y0216417D01*
X0082477Y0216368D01*
X0082444Y0216317D01*
X0082415Y0216265D01*
X0082388Y0216210D01*
X0082365Y0216155D01*
X0082345Y0216098D01*
X0082329Y0216039D01*
X0082316Y0215980D01*
X0082307Y0215921D01*
X0082302Y0215860D01*
X0082300Y0215800D01*
X0090800Y0211800D02*
X0095600Y0211800D01*
X0098100Y0211800D02*
X0102800Y0211800D01*
X0102800Y0201800D02*
X0098100Y0201800D01*
X0095600Y0201800D02*
X0090800Y0201800D01*
X0124083Y0213808D02*
X0159517Y0213808D01*
X0159517Y0226800D01*
X0159517Y0239792D01*
X0124083Y0239792D01*
X0124083Y0226800D01*
X0124083Y0213808D01*
X0134083Y0216800D02*
X0134083Y0203808D01*
X0169517Y0203808D01*
X0169517Y0216800D01*
X0169517Y0229792D01*
X0134083Y0229792D01*
X0134083Y0216800D01*
X0123660Y0231091D02*
X0150038Y0231091D01*
X0150038Y0242509D01*
X0123660Y0242509D01*
X0123660Y0231091D01*
X0113660Y0241091D02*
X0140038Y0241091D01*
X0140038Y0252509D01*
X0113660Y0252509D01*
X0113660Y0241091D01*
X0103660Y0251091D02*
X0130038Y0251091D01*
X0130038Y0262509D01*
X0103660Y0262509D01*
X0103660Y0251091D01*
X0093660Y0261091D02*
X0120038Y0261091D01*
X0120038Y0272509D01*
X0093660Y0272509D01*
X0093660Y0261091D01*
X0083660Y0271091D02*
X0110038Y0271091D01*
X0110038Y0282509D01*
X0083660Y0282509D01*
X0083660Y0271091D01*
X0073660Y0281091D02*
X0100038Y0281091D01*
X0100038Y0292509D01*
X0073660Y0292509D01*
X0073660Y0281091D01*
X0101100Y0302800D02*
X0101100Y0315600D01*
X0101100Y0318000D01*
X0101100Y0330800D01*
X0101700Y0330800D01*
X0101100Y0318000D02*
X0101169Y0317998D01*
X0101237Y0317992D01*
X0101305Y0317982D01*
X0101372Y0317969D01*
X0101438Y0317951D01*
X0101503Y0317930D01*
X0101567Y0317905D01*
X0101629Y0317877D01*
X0101690Y0317845D01*
X0101749Y0317810D01*
X0101805Y0317771D01*
X0101860Y0317729D01*
X0101911Y0317684D01*
X0101961Y0317636D01*
X0102007Y0317586D01*
X0102050Y0317533D01*
X0102091Y0317477D01*
X0102128Y0317420D01*
X0102161Y0317360D01*
X0102192Y0317298D01*
X0102218Y0317235D01*
X0102241Y0317171D01*
X0102261Y0317105D01*
X0102276Y0317038D01*
X0102288Y0316971D01*
X0102296Y0316903D01*
X0102300Y0316834D01*
X0102300Y0316766D01*
X0102296Y0316697D01*
X0102288Y0316629D01*
X0102276Y0316562D01*
X0102261Y0316495D01*
X0102241Y0316429D01*
X0102218Y0316365D01*
X0102192Y0316302D01*
X0102161Y0316240D01*
X0102128Y0316180D01*
X0102091Y0316123D01*
X0102050Y0316067D01*
X0102007Y0316014D01*
X0101961Y0315964D01*
X0101911Y0315916D01*
X0101860Y0315871D01*
X0101805Y0315829D01*
X0101749Y0315790D01*
X0101690Y0315755D01*
X0101629Y0315723D01*
X0101567Y0315695D01*
X0101503Y0315670D01*
X0101438Y0315649D01*
X0101372Y0315631D01*
X0101305Y0315618D01*
X0101237Y0315608D01*
X0101169Y0315602D01*
X0101100Y0315600D01*
X0081800Y0323300D02*
X0081800Y0350300D01*
X0081798Y0350360D01*
X0081793Y0350421D01*
X0081784Y0350480D01*
X0081771Y0350539D01*
X0081755Y0350598D01*
X0081735Y0350655D01*
X0081712Y0350710D01*
X0081685Y0350765D01*
X0081656Y0350817D01*
X0081623Y0350868D01*
X0081587Y0350917D01*
X0081549Y0350963D01*
X0081507Y0351007D01*
X0081463Y0351049D01*
X0081417Y0351087D01*
X0081368Y0351123D01*
X0081317Y0351156D01*
X0081265Y0351185D01*
X0081210Y0351212D01*
X0081155Y0351235D01*
X0081098Y0351255D01*
X0081039Y0351271D01*
X0080980Y0351284D01*
X0080921Y0351293D01*
X0080860Y0351298D01*
X0080800Y0351300D01*
X0072800Y0351300D01*
X0072740Y0351298D01*
X0072679Y0351293D01*
X0072620Y0351284D01*
X0072561Y0351271D01*
X0072502Y0351255D01*
X0072445Y0351235D01*
X0072390Y0351212D01*
X0072335Y0351185D01*
X0072283Y0351156D01*
X0072232Y0351123D01*
X0072183Y0351087D01*
X0072137Y0351049D01*
X0072093Y0351007D01*
X0072051Y0350963D01*
X0072013Y0350917D01*
X0071977Y0350868D01*
X0071944Y0350817D01*
X0071915Y0350765D01*
X0071888Y0350710D01*
X0071865Y0350655D01*
X0071845Y0350598D01*
X0071829Y0350539D01*
X0071816Y0350480D01*
X0071807Y0350421D01*
X0071802Y0350360D01*
X0071800Y0350300D01*
X0071800Y0323300D01*
X0071800Y0350300D01*
X0071798Y0350360D01*
X0071793Y0350421D01*
X0071784Y0350480D01*
X0071771Y0350539D01*
X0071755Y0350598D01*
X0071735Y0350655D01*
X0071712Y0350710D01*
X0071685Y0350765D01*
X0071656Y0350817D01*
X0071623Y0350868D01*
X0071587Y0350917D01*
X0071549Y0350963D01*
X0071507Y0351007D01*
X0071463Y0351049D01*
X0071417Y0351087D01*
X0071368Y0351123D01*
X0071317Y0351156D01*
X0071265Y0351185D01*
X0071210Y0351212D01*
X0071155Y0351235D01*
X0071098Y0351255D01*
X0071039Y0351271D01*
X0070980Y0351284D01*
X0070921Y0351293D01*
X0070860Y0351298D01*
X0070800Y0351300D01*
X0062800Y0351300D01*
X0062740Y0351298D01*
X0062679Y0351293D01*
X0062620Y0351284D01*
X0062561Y0351271D01*
X0062502Y0351255D01*
X0062445Y0351235D01*
X0062390Y0351212D01*
X0062335Y0351185D01*
X0062283Y0351156D01*
X0062232Y0351123D01*
X0062183Y0351087D01*
X0062137Y0351049D01*
X0062093Y0351007D01*
X0062051Y0350963D01*
X0062013Y0350917D01*
X0061977Y0350868D01*
X0061944Y0350817D01*
X0061915Y0350765D01*
X0061888Y0350710D01*
X0061865Y0350655D01*
X0061845Y0350598D01*
X0061829Y0350539D01*
X0061816Y0350480D01*
X0061807Y0350421D01*
X0061802Y0350360D01*
X0061800Y0350300D01*
X0061800Y0323300D01*
X0061802Y0323240D01*
X0061807Y0323179D01*
X0061816Y0323120D01*
X0061829Y0323061D01*
X0061845Y0323002D01*
X0061865Y0322945D01*
X0061888Y0322890D01*
X0061915Y0322835D01*
X0061944Y0322783D01*
X0061977Y0322732D01*
X0062013Y0322683D01*
X0062051Y0322637D01*
X0062093Y0322593D01*
X0062137Y0322551D01*
X0062183Y0322513D01*
X0062232Y0322477D01*
X0062283Y0322444D01*
X0062335Y0322415D01*
X0062390Y0322388D01*
X0062445Y0322365D01*
X0062502Y0322345D01*
X0062561Y0322329D01*
X0062620Y0322316D01*
X0062679Y0322307D01*
X0062740Y0322302D01*
X0062800Y0322300D01*
X0070800Y0322300D01*
X0070860Y0322302D01*
X0070921Y0322307D01*
X0070980Y0322316D01*
X0071039Y0322329D01*
X0071098Y0322345D01*
X0071155Y0322365D01*
X0071210Y0322388D01*
X0071265Y0322415D01*
X0071317Y0322444D01*
X0071368Y0322477D01*
X0071417Y0322513D01*
X0071463Y0322551D01*
X0071507Y0322593D01*
X0071549Y0322637D01*
X0071587Y0322683D01*
X0071623Y0322732D01*
X0071656Y0322783D01*
X0071685Y0322835D01*
X0071712Y0322890D01*
X0071735Y0322945D01*
X0071755Y0323002D01*
X0071771Y0323061D01*
X0071784Y0323120D01*
X0071793Y0323179D01*
X0071798Y0323240D01*
X0071800Y0323300D01*
X0071802Y0323240D01*
X0071807Y0323179D01*
X0071816Y0323120D01*
X0071829Y0323061D01*
X0071845Y0323002D01*
X0071865Y0322945D01*
X0071888Y0322890D01*
X0071915Y0322835D01*
X0071944Y0322783D01*
X0071977Y0322732D01*
X0072013Y0322683D01*
X0072051Y0322637D01*
X0072093Y0322593D01*
X0072137Y0322551D01*
X0072183Y0322513D01*
X0072232Y0322477D01*
X0072283Y0322444D01*
X0072335Y0322415D01*
X0072390Y0322388D01*
X0072445Y0322365D01*
X0072502Y0322345D01*
X0072561Y0322329D01*
X0072620Y0322316D01*
X0072679Y0322307D01*
X0072740Y0322302D01*
X0072800Y0322300D01*
X0080800Y0322300D01*
X0080860Y0322302D01*
X0080921Y0322307D01*
X0080980Y0322316D01*
X0081039Y0322329D01*
X0081098Y0322345D01*
X0081155Y0322365D01*
X0081210Y0322388D01*
X0081265Y0322415D01*
X0081317Y0322444D01*
X0081368Y0322477D01*
X0081417Y0322513D01*
X0081463Y0322551D01*
X0081507Y0322593D01*
X0081549Y0322637D01*
X0081587Y0322683D01*
X0081623Y0322732D01*
X0081656Y0322783D01*
X0081685Y0322835D01*
X0081712Y0322890D01*
X0081735Y0322945D01*
X0081755Y0323002D01*
X0081771Y0323061D01*
X0081784Y0323120D01*
X0081793Y0323179D01*
X0081798Y0323240D01*
X0081800Y0323300D01*
X0076800Y0330800D02*
X0076800Y0335500D01*
X0076800Y0338000D02*
X0076800Y0342800D01*
X0066800Y0342800D02*
X0066800Y0338000D01*
X0066800Y0335500D02*
X0066800Y0330800D01*
X0061721Y0371131D02*
X0081879Y0371131D01*
X0091721Y0371131D02*
X0171879Y0371131D01*
X0181721Y0371131D02*
X0221879Y0371131D01*
X0231721Y0371131D02*
X0311879Y0371131D01*
X0321721Y0371131D02*
X0341879Y0371131D01*
X0363335Y0371800D02*
X0363338Y0372008D01*
X0363345Y0372215D01*
X0363358Y0372423D01*
X0363376Y0372630D01*
X0363399Y0372836D01*
X0363427Y0373042D01*
X0363460Y0373247D01*
X0363498Y0373451D01*
X0363541Y0373655D01*
X0363589Y0373857D01*
X0363642Y0374058D01*
X0363700Y0374257D01*
X0363762Y0374455D01*
X0363830Y0374652D01*
X0363902Y0374847D01*
X0363979Y0375039D01*
X0364061Y0375230D01*
X0364148Y0375419D01*
X0364239Y0375606D01*
X0364335Y0375790D01*
X0364435Y0375972D01*
X0364539Y0376152D01*
X0364648Y0376329D01*
X0364762Y0376503D01*
X0364879Y0376674D01*
X0365001Y0376843D01*
X0365127Y0377008D01*
X0365256Y0377170D01*
X0365390Y0377329D01*
X0365528Y0377485D01*
X0365669Y0377637D01*
X0365814Y0377786D01*
X0365963Y0377931D01*
X0366115Y0378072D01*
X0366271Y0378210D01*
X0366430Y0378344D01*
X0366592Y0378473D01*
X0366757Y0378599D01*
X0366926Y0378721D01*
X0367097Y0378838D01*
X0367271Y0378952D01*
X0367448Y0379061D01*
X0367628Y0379165D01*
X0367810Y0379265D01*
X0367994Y0379361D01*
X0368181Y0379452D01*
X0368370Y0379539D01*
X0368561Y0379621D01*
X0368753Y0379698D01*
X0368948Y0379770D01*
X0369145Y0379838D01*
X0369343Y0379900D01*
X0369542Y0379958D01*
X0369743Y0380011D01*
X0369945Y0380059D01*
X0370149Y0380102D01*
X0370353Y0380140D01*
X0370558Y0380173D01*
X0370764Y0380201D01*
X0370970Y0380224D01*
X0371177Y0380242D01*
X0371385Y0380255D01*
X0371592Y0380262D01*
X0371800Y0380265D01*
X0372008Y0380262D01*
X0372215Y0380255D01*
X0372423Y0380242D01*
X0372630Y0380224D01*
X0372836Y0380201D01*
X0373042Y0380173D01*
X0373247Y0380140D01*
X0373451Y0380102D01*
X0373655Y0380059D01*
X0373857Y0380011D01*
X0374058Y0379958D01*
X0374257Y0379900D01*
X0374455Y0379838D01*
X0374652Y0379770D01*
X0374847Y0379698D01*
X0375039Y0379621D01*
X0375230Y0379539D01*
X0375419Y0379452D01*
X0375606Y0379361D01*
X0375790Y0379265D01*
X0375972Y0379165D01*
X0376152Y0379061D01*
X0376329Y0378952D01*
X0376503Y0378838D01*
X0376674Y0378721D01*
X0376843Y0378599D01*
X0377008Y0378473D01*
X0377170Y0378344D01*
X0377329Y0378210D01*
X0377485Y0378072D01*
X0377637Y0377931D01*
X0377786Y0377786D01*
X0377931Y0377637D01*
X0378072Y0377485D01*
X0378210Y0377329D01*
X0378344Y0377170D01*
X0378473Y0377008D01*
X0378599Y0376843D01*
X0378721Y0376674D01*
X0378838Y0376503D01*
X0378952Y0376329D01*
X0379061Y0376152D01*
X0379165Y0375972D01*
X0379265Y0375790D01*
X0379361Y0375606D01*
X0379452Y0375419D01*
X0379539Y0375230D01*
X0379621Y0375039D01*
X0379698Y0374847D01*
X0379770Y0374652D01*
X0379838Y0374455D01*
X0379900Y0374257D01*
X0379958Y0374058D01*
X0380011Y0373857D01*
X0380059Y0373655D01*
X0380102Y0373451D01*
X0380140Y0373247D01*
X0380173Y0373042D01*
X0380201Y0372836D01*
X0380224Y0372630D01*
X0380242Y0372423D01*
X0380255Y0372215D01*
X0380262Y0372008D01*
X0380265Y0371800D01*
X0380262Y0371592D01*
X0380255Y0371385D01*
X0380242Y0371177D01*
X0380224Y0370970D01*
X0380201Y0370764D01*
X0380173Y0370558D01*
X0380140Y0370353D01*
X0380102Y0370149D01*
X0380059Y0369945D01*
X0380011Y0369743D01*
X0379958Y0369542D01*
X0379900Y0369343D01*
X0379838Y0369145D01*
X0379770Y0368948D01*
X0379698Y0368753D01*
X0379621Y0368561D01*
X0379539Y0368370D01*
X0379452Y0368181D01*
X0379361Y0367994D01*
X0379265Y0367810D01*
X0379165Y0367628D01*
X0379061Y0367448D01*
X0378952Y0367271D01*
X0378838Y0367097D01*
X0378721Y0366926D01*
X0378599Y0366757D01*
X0378473Y0366592D01*
X0378344Y0366430D01*
X0378210Y0366271D01*
X0378072Y0366115D01*
X0377931Y0365963D01*
X0377786Y0365814D01*
X0377637Y0365669D01*
X0377485Y0365528D01*
X0377329Y0365390D01*
X0377170Y0365256D01*
X0377008Y0365127D01*
X0376843Y0365001D01*
X0376674Y0364879D01*
X0376503Y0364762D01*
X0376329Y0364648D01*
X0376152Y0364539D01*
X0375972Y0364435D01*
X0375790Y0364335D01*
X0375606Y0364239D01*
X0375419Y0364148D01*
X0375230Y0364061D01*
X0375039Y0363979D01*
X0374847Y0363902D01*
X0374652Y0363830D01*
X0374455Y0363762D01*
X0374257Y0363700D01*
X0374058Y0363642D01*
X0373857Y0363589D01*
X0373655Y0363541D01*
X0373451Y0363498D01*
X0373247Y0363460D01*
X0373042Y0363427D01*
X0372836Y0363399D01*
X0372630Y0363376D01*
X0372423Y0363358D01*
X0372215Y0363345D01*
X0372008Y0363338D01*
X0371800Y0363335D01*
X0371592Y0363338D01*
X0371385Y0363345D01*
X0371177Y0363358D01*
X0370970Y0363376D01*
X0370764Y0363399D01*
X0370558Y0363427D01*
X0370353Y0363460D01*
X0370149Y0363498D01*
X0369945Y0363541D01*
X0369743Y0363589D01*
X0369542Y0363642D01*
X0369343Y0363700D01*
X0369145Y0363762D01*
X0368948Y0363830D01*
X0368753Y0363902D01*
X0368561Y0363979D01*
X0368370Y0364061D01*
X0368181Y0364148D01*
X0367994Y0364239D01*
X0367810Y0364335D01*
X0367628Y0364435D01*
X0367448Y0364539D01*
X0367271Y0364648D01*
X0367097Y0364762D01*
X0366926Y0364879D01*
X0366757Y0365001D01*
X0366592Y0365127D01*
X0366430Y0365256D01*
X0366271Y0365390D01*
X0366115Y0365528D01*
X0365963Y0365669D01*
X0365814Y0365814D01*
X0365669Y0365963D01*
X0365528Y0366115D01*
X0365390Y0366271D01*
X0365256Y0366430D01*
X0365127Y0366592D01*
X0365001Y0366757D01*
X0364879Y0366926D01*
X0364762Y0367097D01*
X0364648Y0367271D01*
X0364539Y0367448D01*
X0364435Y0367628D01*
X0364335Y0367810D01*
X0364239Y0367994D01*
X0364148Y0368181D01*
X0364061Y0368370D01*
X0363979Y0368561D01*
X0363902Y0368753D01*
X0363830Y0368948D01*
X0363762Y0369145D01*
X0363700Y0369343D01*
X0363642Y0369542D01*
X0363589Y0369743D01*
X0363541Y0369945D01*
X0363498Y0370149D01*
X0363460Y0370353D01*
X0363427Y0370558D01*
X0363399Y0370764D01*
X0363376Y0370970D01*
X0363358Y0371177D01*
X0363345Y0371385D01*
X0363338Y0371592D01*
X0363335Y0371800D01*
X0354100Y0371800D02*
X0354105Y0372234D01*
X0354121Y0372668D01*
X0354148Y0373102D01*
X0354185Y0373535D01*
X0354233Y0373967D01*
X0354292Y0374397D01*
X0354361Y0374826D01*
X0354440Y0375253D01*
X0354530Y0375678D01*
X0354630Y0376101D01*
X0354741Y0376521D01*
X0354862Y0376938D01*
X0354993Y0377352D01*
X0355135Y0377763D01*
X0355286Y0378170D01*
X0355447Y0378573D01*
X0355618Y0378973D01*
X0355799Y0379368D01*
X0355990Y0379758D01*
X0356190Y0380144D01*
X0356399Y0380524D01*
X0356618Y0380900D01*
X0356846Y0381269D01*
X0357083Y0381634D01*
X0357329Y0381992D01*
X0357583Y0382344D01*
X0357846Y0382690D01*
X0358118Y0383029D01*
X0358397Y0383361D01*
X0358685Y0383687D01*
X0358981Y0384005D01*
X0359284Y0384316D01*
X0359595Y0384619D01*
X0359913Y0384915D01*
X0360239Y0385203D01*
X0360571Y0385482D01*
X0360910Y0385754D01*
X0361256Y0386017D01*
X0361608Y0386271D01*
X0361966Y0386517D01*
X0362331Y0386754D01*
X0362700Y0386982D01*
X0363076Y0387201D01*
X0363456Y0387410D01*
X0363842Y0387610D01*
X0364232Y0387801D01*
X0364627Y0387982D01*
X0365027Y0388153D01*
X0365430Y0388314D01*
X0365837Y0388465D01*
X0366248Y0388607D01*
X0366662Y0388738D01*
X0367079Y0388859D01*
X0367499Y0388970D01*
X0367922Y0389070D01*
X0368347Y0389160D01*
X0368774Y0389239D01*
X0369203Y0389308D01*
X0369633Y0389367D01*
X0370065Y0389415D01*
X0370498Y0389452D01*
X0370932Y0389479D01*
X0371366Y0389495D01*
X0371800Y0389500D01*
X0372234Y0389495D01*
X0372668Y0389479D01*
X0373102Y0389452D01*
X0373535Y0389415D01*
X0373967Y0389367D01*
X0374397Y0389308D01*
X0374826Y0389239D01*
X0375253Y0389160D01*
X0375678Y0389070D01*
X0376101Y0388970D01*
X0376521Y0388859D01*
X0376938Y0388738D01*
X0377352Y0388607D01*
X0377763Y0388465D01*
X0378170Y0388314D01*
X0378573Y0388153D01*
X0378973Y0387982D01*
X0379368Y0387801D01*
X0379758Y0387610D01*
X0380144Y0387410D01*
X0380524Y0387201D01*
X0380900Y0386982D01*
X0381269Y0386754D01*
X0381634Y0386517D01*
X0381992Y0386271D01*
X0382344Y0386017D01*
X0382690Y0385754D01*
X0383029Y0385482D01*
X0383361Y0385203D01*
X0383687Y0384915D01*
X0384005Y0384619D01*
X0384316Y0384316D01*
X0384619Y0384005D01*
X0384915Y0383687D01*
X0385203Y0383361D01*
X0385482Y0383029D01*
X0385754Y0382690D01*
X0386017Y0382344D01*
X0386271Y0381992D01*
X0386517Y0381634D01*
X0386754Y0381269D01*
X0386982Y0380900D01*
X0387201Y0380524D01*
X0387410Y0380144D01*
X0387610Y0379758D01*
X0387801Y0379368D01*
X0387982Y0378973D01*
X0388153Y0378573D01*
X0388314Y0378170D01*
X0388465Y0377763D01*
X0388607Y0377352D01*
X0388738Y0376938D01*
X0388859Y0376521D01*
X0388970Y0376101D01*
X0389070Y0375678D01*
X0389160Y0375253D01*
X0389239Y0374826D01*
X0389308Y0374397D01*
X0389367Y0373967D01*
X0389415Y0373535D01*
X0389452Y0373102D01*
X0389479Y0372668D01*
X0389495Y0372234D01*
X0389500Y0371800D01*
X0389495Y0371366D01*
X0389479Y0370932D01*
X0389452Y0370498D01*
X0389415Y0370065D01*
X0389367Y0369633D01*
X0389308Y0369203D01*
X0389239Y0368774D01*
X0389160Y0368347D01*
X0389070Y0367922D01*
X0388970Y0367499D01*
X0388859Y0367079D01*
X0388738Y0366662D01*
X0388607Y0366248D01*
X0388465Y0365837D01*
X0388314Y0365430D01*
X0388153Y0365027D01*
X0387982Y0364627D01*
X0387801Y0364232D01*
X0387610Y0363842D01*
X0387410Y0363456D01*
X0387201Y0363076D01*
X0386982Y0362700D01*
X0386754Y0362331D01*
X0386517Y0361966D01*
X0386271Y0361608D01*
X0386017Y0361256D01*
X0385754Y0360910D01*
X0385482Y0360571D01*
X0385203Y0360239D01*
X0384915Y0359913D01*
X0384619Y0359595D01*
X0384316Y0359284D01*
X0384005Y0358981D01*
X0383687Y0358685D01*
X0383361Y0358397D01*
X0383029Y0358118D01*
X0382690Y0357846D01*
X0382344Y0357583D01*
X0381992Y0357329D01*
X0381634Y0357083D01*
X0381269Y0356846D01*
X0380900Y0356618D01*
X0380524Y0356399D01*
X0380144Y0356190D01*
X0379758Y0355990D01*
X0379368Y0355799D01*
X0378973Y0355618D01*
X0378573Y0355447D01*
X0378170Y0355286D01*
X0377763Y0355135D01*
X0377352Y0354993D01*
X0376938Y0354862D01*
X0376521Y0354741D01*
X0376101Y0354630D01*
X0375678Y0354530D01*
X0375253Y0354440D01*
X0374826Y0354361D01*
X0374397Y0354292D01*
X0373967Y0354233D01*
X0373535Y0354185D01*
X0373102Y0354148D01*
X0372668Y0354121D01*
X0372234Y0354105D01*
X0371800Y0354100D01*
X0371366Y0354105D01*
X0370932Y0354121D01*
X0370498Y0354148D01*
X0370065Y0354185D01*
X0369633Y0354233D01*
X0369203Y0354292D01*
X0368774Y0354361D01*
X0368347Y0354440D01*
X0367922Y0354530D01*
X0367499Y0354630D01*
X0367079Y0354741D01*
X0366662Y0354862D01*
X0366248Y0354993D01*
X0365837Y0355135D01*
X0365430Y0355286D01*
X0365027Y0355447D01*
X0364627Y0355618D01*
X0364232Y0355799D01*
X0363842Y0355990D01*
X0363456Y0356190D01*
X0363076Y0356399D01*
X0362700Y0356618D01*
X0362331Y0356846D01*
X0361966Y0357083D01*
X0361608Y0357329D01*
X0361256Y0357583D01*
X0360910Y0357846D01*
X0360571Y0358118D01*
X0360239Y0358397D01*
X0359913Y0358685D01*
X0359595Y0358981D01*
X0359284Y0359284D01*
X0358981Y0359595D01*
X0358685Y0359913D01*
X0358397Y0360239D01*
X0358118Y0360571D01*
X0357846Y0360910D01*
X0357583Y0361256D01*
X0357329Y0361608D01*
X0357083Y0361966D01*
X0356846Y0362331D01*
X0356618Y0362700D01*
X0356399Y0363076D01*
X0356190Y0363456D01*
X0355990Y0363842D01*
X0355799Y0364232D01*
X0355618Y0364627D01*
X0355447Y0365027D01*
X0355286Y0365430D01*
X0355135Y0365837D01*
X0354993Y0366248D01*
X0354862Y0366662D01*
X0354741Y0367079D01*
X0354630Y0367499D01*
X0354530Y0367922D01*
X0354440Y0368347D01*
X0354361Y0368774D01*
X0354292Y0369203D01*
X0354233Y0369633D01*
X0354185Y0370065D01*
X0354148Y0370498D01*
X0354121Y0370932D01*
X0354105Y0371366D01*
X0354100Y0371800D01*
X0322500Y0330800D02*
X0321900Y0330800D01*
X0322500Y0330800D02*
X0322500Y0302800D01*
X0321900Y0302800D01*
X0313562Y0292509D02*
X0313562Y0281091D01*
X0339940Y0281091D01*
X0339940Y0292509D01*
X0313562Y0292509D01*
X0303562Y0282509D02*
X0303562Y0271091D01*
X0329940Y0271091D01*
X0329940Y0282509D01*
X0303562Y0282509D01*
X0293562Y0272509D02*
X0293562Y0261091D01*
X0319940Y0261091D01*
X0319940Y0272509D01*
X0293562Y0272509D01*
X0283562Y0262509D02*
X0283562Y0251091D01*
X0309940Y0251091D01*
X0309940Y0262509D01*
X0283562Y0262509D01*
X0273562Y0252509D02*
X0273562Y0241091D01*
X0299940Y0241091D01*
X0299940Y0252509D01*
X0273562Y0252509D01*
X0263562Y0242509D02*
X0263562Y0231091D01*
X0289940Y0231091D01*
X0289940Y0242509D01*
X0263562Y0242509D01*
X0254083Y0239792D02*
X0254083Y0226800D01*
X0254083Y0213808D01*
X0289517Y0213808D01*
X0289517Y0226800D01*
X0289517Y0239792D01*
X0254083Y0239792D01*
X0244083Y0229792D02*
X0244083Y0216800D01*
X0244083Y0203808D01*
X0279517Y0203808D01*
X0279517Y0216800D01*
X0279517Y0229792D01*
X0244083Y0229792D01*
X0292300Y0185800D02*
X0292300Y0177800D01*
X0292302Y0177740D01*
X0292307Y0177679D01*
X0292316Y0177620D01*
X0292329Y0177561D01*
X0292345Y0177502D01*
X0292365Y0177445D01*
X0292388Y0177390D01*
X0292415Y0177335D01*
X0292444Y0177283D01*
X0292477Y0177232D01*
X0292513Y0177183D01*
X0292551Y0177137D01*
X0292593Y0177093D01*
X0292637Y0177051D01*
X0292683Y0177013D01*
X0292732Y0176977D01*
X0292783Y0176944D01*
X0292835Y0176915D01*
X0292890Y0176888D01*
X0292945Y0176865D01*
X0293002Y0176845D01*
X0293061Y0176829D01*
X0293120Y0176816D01*
X0293179Y0176807D01*
X0293240Y0176802D01*
X0293300Y0176800D01*
X0320300Y0176800D01*
X0293300Y0176800D01*
X0293240Y0176798D01*
X0293179Y0176793D01*
X0293120Y0176784D01*
X0293061Y0176771D01*
X0293002Y0176755D01*
X0292945Y0176735D01*
X0292890Y0176712D01*
X0292835Y0176685D01*
X0292783Y0176656D01*
X0292732Y0176623D01*
X0292683Y0176587D01*
X0292637Y0176549D01*
X0292593Y0176507D01*
X0292551Y0176463D01*
X0292513Y0176417D01*
X0292477Y0176368D01*
X0292444Y0176317D01*
X0292415Y0176265D01*
X0292388Y0176210D01*
X0292365Y0176155D01*
X0292345Y0176098D01*
X0292329Y0176039D01*
X0292316Y0175980D01*
X0292307Y0175921D01*
X0292302Y0175860D01*
X0292300Y0175800D01*
X0292300Y0167800D01*
X0292302Y0167740D01*
X0292307Y0167679D01*
X0292316Y0167620D01*
X0292329Y0167561D01*
X0292345Y0167502D01*
X0292365Y0167445D01*
X0292388Y0167390D01*
X0292415Y0167335D01*
X0292444Y0167283D01*
X0292477Y0167232D01*
X0292513Y0167183D01*
X0292551Y0167137D01*
X0292593Y0167093D01*
X0292637Y0167051D01*
X0292683Y0167013D01*
X0292732Y0166977D01*
X0292783Y0166944D01*
X0292835Y0166915D01*
X0292890Y0166888D01*
X0292945Y0166865D01*
X0293002Y0166845D01*
X0293061Y0166829D01*
X0293120Y0166816D01*
X0293179Y0166807D01*
X0293240Y0166802D01*
X0293300Y0166800D01*
X0320300Y0166800D01*
X0320360Y0166802D01*
X0320421Y0166807D01*
X0320480Y0166816D01*
X0320539Y0166829D01*
X0320598Y0166845D01*
X0320655Y0166865D01*
X0320710Y0166888D01*
X0320765Y0166915D01*
X0320817Y0166944D01*
X0320868Y0166977D01*
X0320917Y0167013D01*
X0320963Y0167051D01*
X0321007Y0167093D01*
X0321049Y0167137D01*
X0321087Y0167183D01*
X0321123Y0167232D01*
X0321156Y0167283D01*
X0321185Y0167335D01*
X0321212Y0167390D01*
X0321235Y0167445D01*
X0321255Y0167502D01*
X0321271Y0167561D01*
X0321284Y0167620D01*
X0321293Y0167679D01*
X0321298Y0167740D01*
X0321300Y0167800D01*
X0321300Y0175800D01*
X0321298Y0175860D01*
X0321293Y0175921D01*
X0321284Y0175980D01*
X0321271Y0176039D01*
X0321255Y0176098D01*
X0321235Y0176155D01*
X0321212Y0176210D01*
X0321185Y0176265D01*
X0321156Y0176317D01*
X0321123Y0176368D01*
X0321087Y0176417D01*
X0321049Y0176463D01*
X0321007Y0176507D01*
X0320963Y0176549D01*
X0320917Y0176587D01*
X0320868Y0176623D01*
X0320817Y0176656D01*
X0320765Y0176685D01*
X0320710Y0176712D01*
X0320655Y0176735D01*
X0320598Y0176755D01*
X0320539Y0176771D01*
X0320480Y0176784D01*
X0320421Y0176793D01*
X0320360Y0176798D01*
X0320300Y0176800D01*
X0320360Y0176802D01*
X0320421Y0176807D01*
X0320480Y0176816D01*
X0320539Y0176829D01*
X0320598Y0176845D01*
X0320655Y0176865D01*
X0320710Y0176888D01*
X0320765Y0176915D01*
X0320817Y0176944D01*
X0320868Y0176977D01*
X0320917Y0177013D01*
X0320963Y0177051D01*
X0321007Y0177093D01*
X0321049Y0177137D01*
X0321087Y0177183D01*
X0321123Y0177232D01*
X0321156Y0177283D01*
X0321185Y0177335D01*
X0321212Y0177390D01*
X0321235Y0177445D01*
X0321255Y0177502D01*
X0321271Y0177561D01*
X0321284Y0177620D01*
X0321293Y0177679D01*
X0321298Y0177740D01*
X0321300Y0177800D01*
X0321300Y0185800D01*
X0321298Y0185860D01*
X0321293Y0185921D01*
X0321284Y0185980D01*
X0321271Y0186039D01*
X0321255Y0186098D01*
X0321235Y0186155D01*
X0321212Y0186210D01*
X0321185Y0186265D01*
X0321156Y0186317D01*
X0321123Y0186368D01*
X0321087Y0186417D01*
X0321049Y0186463D01*
X0321007Y0186507D01*
X0320963Y0186549D01*
X0320917Y0186587D01*
X0320868Y0186623D01*
X0320817Y0186656D01*
X0320765Y0186685D01*
X0320710Y0186712D01*
X0320655Y0186735D01*
X0320598Y0186755D01*
X0320539Y0186771D01*
X0320480Y0186784D01*
X0320421Y0186793D01*
X0320360Y0186798D01*
X0320300Y0186800D01*
X0293300Y0186800D01*
X0293240Y0186798D01*
X0293179Y0186793D01*
X0293120Y0186784D01*
X0293061Y0186771D01*
X0293002Y0186755D01*
X0292945Y0186735D01*
X0292890Y0186712D01*
X0292835Y0186685D01*
X0292783Y0186656D01*
X0292732Y0186623D01*
X0292683Y0186587D01*
X0292637Y0186549D01*
X0292593Y0186507D01*
X0292551Y0186463D01*
X0292513Y0186417D01*
X0292477Y0186368D01*
X0292444Y0186317D01*
X0292415Y0186265D01*
X0292388Y0186210D01*
X0292365Y0186155D01*
X0292345Y0186098D01*
X0292329Y0186039D01*
X0292316Y0185980D01*
X0292307Y0185921D01*
X0292302Y0185860D01*
X0292300Y0185800D01*
X0300800Y0181800D02*
X0305600Y0181800D01*
X0308100Y0181800D02*
X0312800Y0181800D01*
X0312800Y0171800D02*
X0308100Y0171800D01*
X0305600Y0171800D02*
X0300800Y0171800D01*
X0197509Y0142440D02*
X0197509Y0116062D01*
X0186091Y0116062D01*
X0186091Y0142440D01*
X0197509Y0142440D01*
X0192500Y0302800D02*
X0191900Y0302800D01*
X0192500Y0302800D02*
X0192500Y0330800D01*
X0191900Y0330800D01*
X0231100Y0330800D02*
X0231100Y0318000D01*
X0231100Y0315600D01*
X0231100Y0302800D01*
X0231100Y0315600D02*
X0231169Y0315602D01*
X0231237Y0315608D01*
X0231305Y0315618D01*
X0231372Y0315631D01*
X0231438Y0315649D01*
X0231503Y0315670D01*
X0231567Y0315695D01*
X0231629Y0315723D01*
X0231690Y0315755D01*
X0231749Y0315790D01*
X0231805Y0315829D01*
X0231860Y0315871D01*
X0231911Y0315916D01*
X0231961Y0315964D01*
X0232007Y0316014D01*
X0232050Y0316067D01*
X0232091Y0316123D01*
X0232128Y0316180D01*
X0232161Y0316240D01*
X0232192Y0316302D01*
X0232218Y0316365D01*
X0232241Y0316429D01*
X0232261Y0316495D01*
X0232276Y0316562D01*
X0232288Y0316629D01*
X0232296Y0316697D01*
X0232300Y0316766D01*
X0232300Y0316834D01*
X0232296Y0316903D01*
X0232288Y0316971D01*
X0232276Y0317038D01*
X0232261Y0317105D01*
X0232241Y0317171D01*
X0232218Y0317235D01*
X0232192Y0317298D01*
X0232161Y0317360D01*
X0232128Y0317420D01*
X0232091Y0317477D01*
X0232050Y0317533D01*
X0232007Y0317586D01*
X0231961Y0317636D01*
X0231911Y0317684D01*
X0231860Y0317729D01*
X0231805Y0317771D01*
X0231749Y0317810D01*
X0231690Y0317845D01*
X0231629Y0317877D01*
X0231567Y0317905D01*
X0231503Y0317930D01*
X0231438Y0317951D01*
X0231372Y0317969D01*
X0231305Y0317982D01*
X0231237Y0317992D01*
X0231169Y0317998D01*
X0231100Y0318000D01*
X0231100Y0330800D02*
X0231700Y0330800D01*
X0018335Y0371800D02*
X0018338Y0372008D01*
X0018345Y0372215D01*
X0018358Y0372423D01*
X0018376Y0372630D01*
X0018399Y0372836D01*
X0018427Y0373042D01*
X0018460Y0373247D01*
X0018498Y0373451D01*
X0018541Y0373655D01*
X0018589Y0373857D01*
X0018642Y0374058D01*
X0018700Y0374257D01*
X0018762Y0374455D01*
X0018830Y0374652D01*
X0018902Y0374847D01*
X0018979Y0375039D01*
X0019061Y0375230D01*
X0019148Y0375419D01*
X0019239Y0375606D01*
X0019335Y0375790D01*
X0019435Y0375972D01*
X0019539Y0376152D01*
X0019648Y0376329D01*
X0019762Y0376503D01*
X0019879Y0376674D01*
X0020001Y0376843D01*
X0020127Y0377008D01*
X0020256Y0377170D01*
X0020390Y0377329D01*
X0020528Y0377485D01*
X0020669Y0377637D01*
X0020814Y0377786D01*
X0020963Y0377931D01*
X0021115Y0378072D01*
X0021271Y0378210D01*
X0021430Y0378344D01*
X0021592Y0378473D01*
X0021757Y0378599D01*
X0021926Y0378721D01*
X0022097Y0378838D01*
X0022271Y0378952D01*
X0022448Y0379061D01*
X0022628Y0379165D01*
X0022810Y0379265D01*
X0022994Y0379361D01*
X0023181Y0379452D01*
X0023370Y0379539D01*
X0023561Y0379621D01*
X0023753Y0379698D01*
X0023948Y0379770D01*
X0024145Y0379838D01*
X0024343Y0379900D01*
X0024542Y0379958D01*
X0024743Y0380011D01*
X0024945Y0380059D01*
X0025149Y0380102D01*
X0025353Y0380140D01*
X0025558Y0380173D01*
X0025764Y0380201D01*
X0025970Y0380224D01*
X0026177Y0380242D01*
X0026385Y0380255D01*
X0026592Y0380262D01*
X0026800Y0380265D01*
X0027008Y0380262D01*
X0027215Y0380255D01*
X0027423Y0380242D01*
X0027630Y0380224D01*
X0027836Y0380201D01*
X0028042Y0380173D01*
X0028247Y0380140D01*
X0028451Y0380102D01*
X0028655Y0380059D01*
X0028857Y0380011D01*
X0029058Y0379958D01*
X0029257Y0379900D01*
X0029455Y0379838D01*
X0029652Y0379770D01*
X0029847Y0379698D01*
X0030039Y0379621D01*
X0030230Y0379539D01*
X0030419Y0379452D01*
X0030606Y0379361D01*
X0030790Y0379265D01*
X0030972Y0379165D01*
X0031152Y0379061D01*
X0031329Y0378952D01*
X0031503Y0378838D01*
X0031674Y0378721D01*
X0031843Y0378599D01*
X0032008Y0378473D01*
X0032170Y0378344D01*
X0032329Y0378210D01*
X0032485Y0378072D01*
X0032637Y0377931D01*
X0032786Y0377786D01*
X0032931Y0377637D01*
X0033072Y0377485D01*
X0033210Y0377329D01*
X0033344Y0377170D01*
X0033473Y0377008D01*
X0033599Y0376843D01*
X0033721Y0376674D01*
X0033838Y0376503D01*
X0033952Y0376329D01*
X0034061Y0376152D01*
X0034165Y0375972D01*
X0034265Y0375790D01*
X0034361Y0375606D01*
X0034452Y0375419D01*
X0034539Y0375230D01*
X0034621Y0375039D01*
X0034698Y0374847D01*
X0034770Y0374652D01*
X0034838Y0374455D01*
X0034900Y0374257D01*
X0034958Y0374058D01*
X0035011Y0373857D01*
X0035059Y0373655D01*
X0035102Y0373451D01*
X0035140Y0373247D01*
X0035173Y0373042D01*
X0035201Y0372836D01*
X0035224Y0372630D01*
X0035242Y0372423D01*
X0035255Y0372215D01*
X0035262Y0372008D01*
X0035265Y0371800D01*
X0035262Y0371592D01*
X0035255Y0371385D01*
X0035242Y0371177D01*
X0035224Y0370970D01*
X0035201Y0370764D01*
X0035173Y0370558D01*
X0035140Y0370353D01*
X0035102Y0370149D01*
X0035059Y0369945D01*
X0035011Y0369743D01*
X0034958Y0369542D01*
X0034900Y0369343D01*
X0034838Y0369145D01*
X0034770Y0368948D01*
X0034698Y0368753D01*
X0034621Y0368561D01*
X0034539Y0368370D01*
X0034452Y0368181D01*
X0034361Y0367994D01*
X0034265Y0367810D01*
X0034165Y0367628D01*
X0034061Y0367448D01*
X0033952Y0367271D01*
X0033838Y0367097D01*
X0033721Y0366926D01*
X0033599Y0366757D01*
X0033473Y0366592D01*
X0033344Y0366430D01*
X0033210Y0366271D01*
X0033072Y0366115D01*
X0032931Y0365963D01*
X0032786Y0365814D01*
X0032637Y0365669D01*
X0032485Y0365528D01*
X0032329Y0365390D01*
X0032170Y0365256D01*
X0032008Y0365127D01*
X0031843Y0365001D01*
X0031674Y0364879D01*
X0031503Y0364762D01*
X0031329Y0364648D01*
X0031152Y0364539D01*
X0030972Y0364435D01*
X0030790Y0364335D01*
X0030606Y0364239D01*
X0030419Y0364148D01*
X0030230Y0364061D01*
X0030039Y0363979D01*
X0029847Y0363902D01*
X0029652Y0363830D01*
X0029455Y0363762D01*
X0029257Y0363700D01*
X0029058Y0363642D01*
X0028857Y0363589D01*
X0028655Y0363541D01*
X0028451Y0363498D01*
X0028247Y0363460D01*
X0028042Y0363427D01*
X0027836Y0363399D01*
X0027630Y0363376D01*
X0027423Y0363358D01*
X0027215Y0363345D01*
X0027008Y0363338D01*
X0026800Y0363335D01*
X0026592Y0363338D01*
X0026385Y0363345D01*
X0026177Y0363358D01*
X0025970Y0363376D01*
X0025764Y0363399D01*
X0025558Y0363427D01*
X0025353Y0363460D01*
X0025149Y0363498D01*
X0024945Y0363541D01*
X0024743Y0363589D01*
X0024542Y0363642D01*
X0024343Y0363700D01*
X0024145Y0363762D01*
X0023948Y0363830D01*
X0023753Y0363902D01*
X0023561Y0363979D01*
X0023370Y0364061D01*
X0023181Y0364148D01*
X0022994Y0364239D01*
X0022810Y0364335D01*
X0022628Y0364435D01*
X0022448Y0364539D01*
X0022271Y0364648D01*
X0022097Y0364762D01*
X0021926Y0364879D01*
X0021757Y0365001D01*
X0021592Y0365127D01*
X0021430Y0365256D01*
X0021271Y0365390D01*
X0021115Y0365528D01*
X0020963Y0365669D01*
X0020814Y0365814D01*
X0020669Y0365963D01*
X0020528Y0366115D01*
X0020390Y0366271D01*
X0020256Y0366430D01*
X0020127Y0366592D01*
X0020001Y0366757D01*
X0019879Y0366926D01*
X0019762Y0367097D01*
X0019648Y0367271D01*
X0019539Y0367448D01*
X0019435Y0367628D01*
X0019335Y0367810D01*
X0019239Y0367994D01*
X0019148Y0368181D01*
X0019061Y0368370D01*
X0018979Y0368561D01*
X0018902Y0368753D01*
X0018830Y0368948D01*
X0018762Y0369145D01*
X0018700Y0369343D01*
X0018642Y0369542D01*
X0018589Y0369743D01*
X0018541Y0369945D01*
X0018498Y0370149D01*
X0018460Y0370353D01*
X0018427Y0370558D01*
X0018399Y0370764D01*
X0018376Y0370970D01*
X0018358Y0371177D01*
X0018345Y0371385D01*
X0018338Y0371592D01*
X0018335Y0371800D01*
X0009100Y0371800D02*
X0009105Y0372234D01*
X0009121Y0372668D01*
X0009148Y0373102D01*
X0009185Y0373535D01*
X0009233Y0373967D01*
X0009292Y0374397D01*
X0009361Y0374826D01*
X0009440Y0375253D01*
X0009530Y0375678D01*
X0009630Y0376101D01*
X0009741Y0376521D01*
X0009862Y0376938D01*
X0009993Y0377352D01*
X0010135Y0377763D01*
X0010286Y0378170D01*
X0010447Y0378573D01*
X0010618Y0378973D01*
X0010799Y0379368D01*
X0010990Y0379758D01*
X0011190Y0380144D01*
X0011399Y0380524D01*
X0011618Y0380900D01*
X0011846Y0381269D01*
X0012083Y0381634D01*
X0012329Y0381992D01*
X0012583Y0382344D01*
X0012846Y0382690D01*
X0013118Y0383029D01*
X0013397Y0383361D01*
X0013685Y0383687D01*
X0013981Y0384005D01*
X0014284Y0384316D01*
X0014595Y0384619D01*
X0014913Y0384915D01*
X0015239Y0385203D01*
X0015571Y0385482D01*
X0015910Y0385754D01*
X0016256Y0386017D01*
X0016608Y0386271D01*
X0016966Y0386517D01*
X0017331Y0386754D01*
X0017700Y0386982D01*
X0018076Y0387201D01*
X0018456Y0387410D01*
X0018842Y0387610D01*
X0019232Y0387801D01*
X0019627Y0387982D01*
X0020027Y0388153D01*
X0020430Y0388314D01*
X0020837Y0388465D01*
X0021248Y0388607D01*
X0021662Y0388738D01*
X0022079Y0388859D01*
X0022499Y0388970D01*
X0022922Y0389070D01*
X0023347Y0389160D01*
X0023774Y0389239D01*
X0024203Y0389308D01*
X0024633Y0389367D01*
X0025065Y0389415D01*
X0025498Y0389452D01*
X0025932Y0389479D01*
X0026366Y0389495D01*
X0026800Y0389500D01*
X0027234Y0389495D01*
X0027668Y0389479D01*
X0028102Y0389452D01*
X0028535Y0389415D01*
X0028967Y0389367D01*
X0029397Y0389308D01*
X0029826Y0389239D01*
X0030253Y0389160D01*
X0030678Y0389070D01*
X0031101Y0388970D01*
X0031521Y0388859D01*
X0031938Y0388738D01*
X0032352Y0388607D01*
X0032763Y0388465D01*
X0033170Y0388314D01*
X0033573Y0388153D01*
X0033973Y0387982D01*
X0034368Y0387801D01*
X0034758Y0387610D01*
X0035144Y0387410D01*
X0035524Y0387201D01*
X0035900Y0386982D01*
X0036269Y0386754D01*
X0036634Y0386517D01*
X0036992Y0386271D01*
X0037344Y0386017D01*
X0037690Y0385754D01*
X0038029Y0385482D01*
X0038361Y0385203D01*
X0038687Y0384915D01*
X0039005Y0384619D01*
X0039316Y0384316D01*
X0039619Y0384005D01*
X0039915Y0383687D01*
X0040203Y0383361D01*
X0040482Y0383029D01*
X0040754Y0382690D01*
X0041017Y0382344D01*
X0041271Y0381992D01*
X0041517Y0381634D01*
X0041754Y0381269D01*
X0041982Y0380900D01*
X0042201Y0380524D01*
X0042410Y0380144D01*
X0042610Y0379758D01*
X0042801Y0379368D01*
X0042982Y0378973D01*
X0043153Y0378573D01*
X0043314Y0378170D01*
X0043465Y0377763D01*
X0043607Y0377352D01*
X0043738Y0376938D01*
X0043859Y0376521D01*
X0043970Y0376101D01*
X0044070Y0375678D01*
X0044160Y0375253D01*
X0044239Y0374826D01*
X0044308Y0374397D01*
X0044367Y0373967D01*
X0044415Y0373535D01*
X0044452Y0373102D01*
X0044479Y0372668D01*
X0044495Y0372234D01*
X0044500Y0371800D01*
X0044495Y0371366D01*
X0044479Y0370932D01*
X0044452Y0370498D01*
X0044415Y0370065D01*
X0044367Y0369633D01*
X0044308Y0369203D01*
X0044239Y0368774D01*
X0044160Y0368347D01*
X0044070Y0367922D01*
X0043970Y0367499D01*
X0043859Y0367079D01*
X0043738Y0366662D01*
X0043607Y0366248D01*
X0043465Y0365837D01*
X0043314Y0365430D01*
X0043153Y0365027D01*
X0042982Y0364627D01*
X0042801Y0364232D01*
X0042610Y0363842D01*
X0042410Y0363456D01*
X0042201Y0363076D01*
X0041982Y0362700D01*
X0041754Y0362331D01*
X0041517Y0361966D01*
X0041271Y0361608D01*
X0041017Y0361256D01*
X0040754Y0360910D01*
X0040482Y0360571D01*
X0040203Y0360239D01*
X0039915Y0359913D01*
X0039619Y0359595D01*
X0039316Y0359284D01*
X0039005Y0358981D01*
X0038687Y0358685D01*
X0038361Y0358397D01*
X0038029Y0358118D01*
X0037690Y0357846D01*
X0037344Y0357583D01*
X0036992Y0357329D01*
X0036634Y0357083D01*
X0036269Y0356846D01*
X0035900Y0356618D01*
X0035524Y0356399D01*
X0035144Y0356190D01*
X0034758Y0355990D01*
X0034368Y0355799D01*
X0033973Y0355618D01*
X0033573Y0355447D01*
X0033170Y0355286D01*
X0032763Y0355135D01*
X0032352Y0354993D01*
X0031938Y0354862D01*
X0031521Y0354741D01*
X0031101Y0354630D01*
X0030678Y0354530D01*
X0030253Y0354440D01*
X0029826Y0354361D01*
X0029397Y0354292D01*
X0028967Y0354233D01*
X0028535Y0354185D01*
X0028102Y0354148D01*
X0027668Y0354121D01*
X0027234Y0354105D01*
X0026800Y0354100D01*
X0026366Y0354105D01*
X0025932Y0354121D01*
X0025498Y0354148D01*
X0025065Y0354185D01*
X0024633Y0354233D01*
X0024203Y0354292D01*
X0023774Y0354361D01*
X0023347Y0354440D01*
X0022922Y0354530D01*
X0022499Y0354630D01*
X0022079Y0354741D01*
X0021662Y0354862D01*
X0021248Y0354993D01*
X0020837Y0355135D01*
X0020430Y0355286D01*
X0020027Y0355447D01*
X0019627Y0355618D01*
X0019232Y0355799D01*
X0018842Y0355990D01*
X0018456Y0356190D01*
X0018076Y0356399D01*
X0017700Y0356618D01*
X0017331Y0356846D01*
X0016966Y0357083D01*
X0016608Y0357329D01*
X0016256Y0357583D01*
X0015910Y0357846D01*
X0015571Y0358118D01*
X0015239Y0358397D01*
X0014913Y0358685D01*
X0014595Y0358981D01*
X0014284Y0359284D01*
X0013981Y0359595D01*
X0013685Y0359913D01*
X0013397Y0360239D01*
X0013118Y0360571D01*
X0012846Y0360910D01*
X0012583Y0361256D01*
X0012329Y0361608D01*
X0012083Y0361966D01*
X0011846Y0362331D01*
X0011618Y0362700D01*
X0011399Y0363076D01*
X0011190Y0363456D01*
X0010990Y0363842D01*
X0010799Y0364232D01*
X0010618Y0364627D01*
X0010447Y0365027D01*
X0010286Y0365430D01*
X0010135Y0365837D01*
X0009993Y0366248D01*
X0009862Y0366662D01*
X0009741Y0367079D01*
X0009630Y0367499D01*
X0009530Y0367922D01*
X0009440Y0368347D01*
X0009361Y0368774D01*
X0009292Y0369203D01*
X0009233Y0369633D01*
X0009185Y0370065D01*
X0009148Y0370498D01*
X0009121Y0370932D01*
X0009105Y0371366D01*
X0009100Y0371800D01*
X0363335Y0026800D02*
X0363338Y0027008D01*
X0363345Y0027215D01*
X0363358Y0027423D01*
X0363376Y0027630D01*
X0363399Y0027836D01*
X0363427Y0028042D01*
X0363460Y0028247D01*
X0363498Y0028451D01*
X0363541Y0028655D01*
X0363589Y0028857D01*
X0363642Y0029058D01*
X0363700Y0029257D01*
X0363762Y0029455D01*
X0363830Y0029652D01*
X0363902Y0029847D01*
X0363979Y0030039D01*
X0364061Y0030230D01*
X0364148Y0030419D01*
X0364239Y0030606D01*
X0364335Y0030790D01*
X0364435Y0030972D01*
X0364539Y0031152D01*
X0364648Y0031329D01*
X0364762Y0031503D01*
X0364879Y0031674D01*
X0365001Y0031843D01*
X0365127Y0032008D01*
X0365256Y0032170D01*
X0365390Y0032329D01*
X0365528Y0032485D01*
X0365669Y0032637D01*
X0365814Y0032786D01*
X0365963Y0032931D01*
X0366115Y0033072D01*
X0366271Y0033210D01*
X0366430Y0033344D01*
X0366592Y0033473D01*
X0366757Y0033599D01*
X0366926Y0033721D01*
X0367097Y0033838D01*
X0367271Y0033952D01*
X0367448Y0034061D01*
X0367628Y0034165D01*
X0367810Y0034265D01*
X0367994Y0034361D01*
X0368181Y0034452D01*
X0368370Y0034539D01*
X0368561Y0034621D01*
X0368753Y0034698D01*
X0368948Y0034770D01*
X0369145Y0034838D01*
X0369343Y0034900D01*
X0369542Y0034958D01*
X0369743Y0035011D01*
X0369945Y0035059D01*
X0370149Y0035102D01*
X0370353Y0035140D01*
X0370558Y0035173D01*
X0370764Y0035201D01*
X0370970Y0035224D01*
X0371177Y0035242D01*
X0371385Y0035255D01*
X0371592Y0035262D01*
X0371800Y0035265D01*
X0372008Y0035262D01*
X0372215Y0035255D01*
X0372423Y0035242D01*
X0372630Y0035224D01*
X0372836Y0035201D01*
X0373042Y0035173D01*
X0373247Y0035140D01*
X0373451Y0035102D01*
X0373655Y0035059D01*
X0373857Y0035011D01*
X0374058Y0034958D01*
X0374257Y0034900D01*
X0374455Y0034838D01*
X0374652Y0034770D01*
X0374847Y0034698D01*
X0375039Y0034621D01*
X0375230Y0034539D01*
X0375419Y0034452D01*
X0375606Y0034361D01*
X0375790Y0034265D01*
X0375972Y0034165D01*
X0376152Y0034061D01*
X0376329Y0033952D01*
X0376503Y0033838D01*
X0376674Y0033721D01*
X0376843Y0033599D01*
X0377008Y0033473D01*
X0377170Y0033344D01*
X0377329Y0033210D01*
X0377485Y0033072D01*
X0377637Y0032931D01*
X0377786Y0032786D01*
X0377931Y0032637D01*
X0378072Y0032485D01*
X0378210Y0032329D01*
X0378344Y0032170D01*
X0378473Y0032008D01*
X0378599Y0031843D01*
X0378721Y0031674D01*
X0378838Y0031503D01*
X0378952Y0031329D01*
X0379061Y0031152D01*
X0379165Y0030972D01*
X0379265Y0030790D01*
X0379361Y0030606D01*
X0379452Y0030419D01*
X0379539Y0030230D01*
X0379621Y0030039D01*
X0379698Y0029847D01*
X0379770Y0029652D01*
X0379838Y0029455D01*
X0379900Y0029257D01*
X0379958Y0029058D01*
X0380011Y0028857D01*
X0380059Y0028655D01*
X0380102Y0028451D01*
X0380140Y0028247D01*
X0380173Y0028042D01*
X0380201Y0027836D01*
X0380224Y0027630D01*
X0380242Y0027423D01*
X0380255Y0027215D01*
X0380262Y0027008D01*
X0380265Y0026800D01*
X0380262Y0026592D01*
X0380255Y0026385D01*
X0380242Y0026177D01*
X0380224Y0025970D01*
X0380201Y0025764D01*
X0380173Y0025558D01*
X0380140Y0025353D01*
X0380102Y0025149D01*
X0380059Y0024945D01*
X0380011Y0024743D01*
X0379958Y0024542D01*
X0379900Y0024343D01*
X0379838Y0024145D01*
X0379770Y0023948D01*
X0379698Y0023753D01*
X0379621Y0023561D01*
X0379539Y0023370D01*
X0379452Y0023181D01*
X0379361Y0022994D01*
X0379265Y0022810D01*
X0379165Y0022628D01*
X0379061Y0022448D01*
X0378952Y0022271D01*
X0378838Y0022097D01*
X0378721Y0021926D01*
X0378599Y0021757D01*
X0378473Y0021592D01*
X0378344Y0021430D01*
X0378210Y0021271D01*
X0378072Y0021115D01*
X0377931Y0020963D01*
X0377786Y0020814D01*
X0377637Y0020669D01*
X0377485Y0020528D01*
X0377329Y0020390D01*
X0377170Y0020256D01*
X0377008Y0020127D01*
X0376843Y0020001D01*
X0376674Y0019879D01*
X0376503Y0019762D01*
X0376329Y0019648D01*
X0376152Y0019539D01*
X0375972Y0019435D01*
X0375790Y0019335D01*
X0375606Y0019239D01*
X0375419Y0019148D01*
X0375230Y0019061D01*
X0375039Y0018979D01*
X0374847Y0018902D01*
X0374652Y0018830D01*
X0374455Y0018762D01*
X0374257Y0018700D01*
X0374058Y0018642D01*
X0373857Y0018589D01*
X0373655Y0018541D01*
X0373451Y0018498D01*
X0373247Y0018460D01*
X0373042Y0018427D01*
X0372836Y0018399D01*
X0372630Y0018376D01*
X0372423Y0018358D01*
X0372215Y0018345D01*
X0372008Y0018338D01*
X0371800Y0018335D01*
X0371592Y0018338D01*
X0371385Y0018345D01*
X0371177Y0018358D01*
X0370970Y0018376D01*
X0370764Y0018399D01*
X0370558Y0018427D01*
X0370353Y0018460D01*
X0370149Y0018498D01*
X0369945Y0018541D01*
X0369743Y0018589D01*
X0369542Y0018642D01*
X0369343Y0018700D01*
X0369145Y0018762D01*
X0368948Y0018830D01*
X0368753Y0018902D01*
X0368561Y0018979D01*
X0368370Y0019061D01*
X0368181Y0019148D01*
X0367994Y0019239D01*
X0367810Y0019335D01*
X0367628Y0019435D01*
X0367448Y0019539D01*
X0367271Y0019648D01*
X0367097Y0019762D01*
X0366926Y0019879D01*
X0366757Y0020001D01*
X0366592Y0020127D01*
X0366430Y0020256D01*
X0366271Y0020390D01*
X0366115Y0020528D01*
X0365963Y0020669D01*
X0365814Y0020814D01*
X0365669Y0020963D01*
X0365528Y0021115D01*
X0365390Y0021271D01*
X0365256Y0021430D01*
X0365127Y0021592D01*
X0365001Y0021757D01*
X0364879Y0021926D01*
X0364762Y0022097D01*
X0364648Y0022271D01*
X0364539Y0022448D01*
X0364435Y0022628D01*
X0364335Y0022810D01*
X0364239Y0022994D01*
X0364148Y0023181D01*
X0364061Y0023370D01*
X0363979Y0023561D01*
X0363902Y0023753D01*
X0363830Y0023948D01*
X0363762Y0024145D01*
X0363700Y0024343D01*
X0363642Y0024542D01*
X0363589Y0024743D01*
X0363541Y0024945D01*
X0363498Y0025149D01*
X0363460Y0025353D01*
X0363427Y0025558D01*
X0363399Y0025764D01*
X0363376Y0025970D01*
X0363358Y0026177D01*
X0363345Y0026385D01*
X0363338Y0026592D01*
X0363335Y0026800D01*
X0354100Y0026800D02*
X0354105Y0027234D01*
X0354121Y0027668D01*
X0354148Y0028102D01*
X0354185Y0028535D01*
X0354233Y0028967D01*
X0354292Y0029397D01*
X0354361Y0029826D01*
X0354440Y0030253D01*
X0354530Y0030678D01*
X0354630Y0031101D01*
X0354741Y0031521D01*
X0354862Y0031938D01*
X0354993Y0032352D01*
X0355135Y0032763D01*
X0355286Y0033170D01*
X0355447Y0033573D01*
X0355618Y0033973D01*
X0355799Y0034368D01*
X0355990Y0034758D01*
X0356190Y0035144D01*
X0356399Y0035524D01*
X0356618Y0035900D01*
X0356846Y0036269D01*
X0357083Y0036634D01*
X0357329Y0036992D01*
X0357583Y0037344D01*
X0357846Y0037690D01*
X0358118Y0038029D01*
X0358397Y0038361D01*
X0358685Y0038687D01*
X0358981Y0039005D01*
X0359284Y0039316D01*
X0359595Y0039619D01*
X0359913Y0039915D01*
X0360239Y0040203D01*
X0360571Y0040482D01*
X0360910Y0040754D01*
X0361256Y0041017D01*
X0361608Y0041271D01*
X0361966Y0041517D01*
X0362331Y0041754D01*
X0362700Y0041982D01*
X0363076Y0042201D01*
X0363456Y0042410D01*
X0363842Y0042610D01*
X0364232Y0042801D01*
X0364627Y0042982D01*
X0365027Y0043153D01*
X0365430Y0043314D01*
X0365837Y0043465D01*
X0366248Y0043607D01*
X0366662Y0043738D01*
X0367079Y0043859D01*
X0367499Y0043970D01*
X0367922Y0044070D01*
X0368347Y0044160D01*
X0368774Y0044239D01*
X0369203Y0044308D01*
X0369633Y0044367D01*
X0370065Y0044415D01*
X0370498Y0044452D01*
X0370932Y0044479D01*
X0371366Y0044495D01*
X0371800Y0044500D01*
X0372234Y0044495D01*
X0372668Y0044479D01*
X0373102Y0044452D01*
X0373535Y0044415D01*
X0373967Y0044367D01*
X0374397Y0044308D01*
X0374826Y0044239D01*
X0375253Y0044160D01*
X0375678Y0044070D01*
X0376101Y0043970D01*
X0376521Y0043859D01*
X0376938Y0043738D01*
X0377352Y0043607D01*
X0377763Y0043465D01*
X0378170Y0043314D01*
X0378573Y0043153D01*
X0378973Y0042982D01*
X0379368Y0042801D01*
X0379758Y0042610D01*
X0380144Y0042410D01*
X0380524Y0042201D01*
X0380900Y0041982D01*
X0381269Y0041754D01*
X0381634Y0041517D01*
X0381992Y0041271D01*
X0382344Y0041017D01*
X0382690Y0040754D01*
X0383029Y0040482D01*
X0383361Y0040203D01*
X0383687Y0039915D01*
X0384005Y0039619D01*
X0384316Y0039316D01*
X0384619Y0039005D01*
X0384915Y0038687D01*
X0385203Y0038361D01*
X0385482Y0038029D01*
X0385754Y0037690D01*
X0386017Y0037344D01*
X0386271Y0036992D01*
X0386517Y0036634D01*
X0386754Y0036269D01*
X0386982Y0035900D01*
X0387201Y0035524D01*
X0387410Y0035144D01*
X0387610Y0034758D01*
X0387801Y0034368D01*
X0387982Y0033973D01*
X0388153Y0033573D01*
X0388314Y0033170D01*
X0388465Y0032763D01*
X0388607Y0032352D01*
X0388738Y0031938D01*
X0388859Y0031521D01*
X0388970Y0031101D01*
X0389070Y0030678D01*
X0389160Y0030253D01*
X0389239Y0029826D01*
X0389308Y0029397D01*
X0389367Y0028967D01*
X0389415Y0028535D01*
X0389452Y0028102D01*
X0389479Y0027668D01*
X0389495Y0027234D01*
X0389500Y0026800D01*
X0389495Y0026366D01*
X0389479Y0025932D01*
X0389452Y0025498D01*
X0389415Y0025065D01*
X0389367Y0024633D01*
X0389308Y0024203D01*
X0389239Y0023774D01*
X0389160Y0023347D01*
X0389070Y0022922D01*
X0388970Y0022499D01*
X0388859Y0022079D01*
X0388738Y0021662D01*
X0388607Y0021248D01*
X0388465Y0020837D01*
X0388314Y0020430D01*
X0388153Y0020027D01*
X0387982Y0019627D01*
X0387801Y0019232D01*
X0387610Y0018842D01*
X0387410Y0018456D01*
X0387201Y0018076D01*
X0386982Y0017700D01*
X0386754Y0017331D01*
X0386517Y0016966D01*
X0386271Y0016608D01*
X0386017Y0016256D01*
X0385754Y0015910D01*
X0385482Y0015571D01*
X0385203Y0015239D01*
X0384915Y0014913D01*
X0384619Y0014595D01*
X0384316Y0014284D01*
X0384005Y0013981D01*
X0383687Y0013685D01*
X0383361Y0013397D01*
X0383029Y0013118D01*
X0382690Y0012846D01*
X0382344Y0012583D01*
X0381992Y0012329D01*
X0381634Y0012083D01*
X0381269Y0011846D01*
X0380900Y0011618D01*
X0380524Y0011399D01*
X0380144Y0011190D01*
X0379758Y0010990D01*
X0379368Y0010799D01*
X0378973Y0010618D01*
X0378573Y0010447D01*
X0378170Y0010286D01*
X0377763Y0010135D01*
X0377352Y0009993D01*
X0376938Y0009862D01*
X0376521Y0009741D01*
X0376101Y0009630D01*
X0375678Y0009530D01*
X0375253Y0009440D01*
X0374826Y0009361D01*
X0374397Y0009292D01*
X0373967Y0009233D01*
X0373535Y0009185D01*
X0373102Y0009148D01*
X0372668Y0009121D01*
X0372234Y0009105D01*
X0371800Y0009100D01*
X0371366Y0009105D01*
X0370932Y0009121D01*
X0370498Y0009148D01*
X0370065Y0009185D01*
X0369633Y0009233D01*
X0369203Y0009292D01*
X0368774Y0009361D01*
X0368347Y0009440D01*
X0367922Y0009530D01*
X0367499Y0009630D01*
X0367079Y0009741D01*
X0366662Y0009862D01*
X0366248Y0009993D01*
X0365837Y0010135D01*
X0365430Y0010286D01*
X0365027Y0010447D01*
X0364627Y0010618D01*
X0364232Y0010799D01*
X0363842Y0010990D01*
X0363456Y0011190D01*
X0363076Y0011399D01*
X0362700Y0011618D01*
X0362331Y0011846D01*
X0361966Y0012083D01*
X0361608Y0012329D01*
X0361256Y0012583D01*
X0360910Y0012846D01*
X0360571Y0013118D01*
X0360239Y0013397D01*
X0359913Y0013685D01*
X0359595Y0013981D01*
X0359284Y0014284D01*
X0358981Y0014595D01*
X0358685Y0014913D01*
X0358397Y0015239D01*
X0358118Y0015571D01*
X0357846Y0015910D01*
X0357583Y0016256D01*
X0357329Y0016608D01*
X0357083Y0016966D01*
X0356846Y0017331D01*
X0356618Y0017700D01*
X0356399Y0018076D01*
X0356190Y0018456D01*
X0355990Y0018842D01*
X0355799Y0019232D01*
X0355618Y0019627D01*
X0355447Y0020027D01*
X0355286Y0020430D01*
X0355135Y0020837D01*
X0354993Y0021248D01*
X0354862Y0021662D01*
X0354741Y0022079D01*
X0354630Y0022499D01*
X0354530Y0022922D01*
X0354440Y0023347D01*
X0354361Y0023774D01*
X0354292Y0024203D01*
X0354233Y0024633D01*
X0354185Y0025065D01*
X0354148Y0025498D01*
X0354121Y0025932D01*
X0354105Y0026366D01*
X0354100Y0026800D01*
D14*
X0231466Y0299650D02*
X0228330Y0302786D01*
X0228330Y0301218D02*
X0231466Y0301218D01*
X0231466Y0302786D02*
X0228330Y0299650D01*
X0229898Y0299650D02*
X0229898Y0302786D01*
X0101466Y0302786D02*
X0098330Y0299650D01*
X0098330Y0301218D02*
X0101466Y0301218D01*
X0101466Y0299650D02*
X0098330Y0302786D01*
X0099898Y0302786D02*
X0099898Y0299650D01*
D15*
X0095000Y0299734D02*
X0093766Y0298500D01*
X0087594Y0298500D01*
X0087594Y0303438D02*
X0093766Y0303438D01*
X0095000Y0302203D01*
X0095000Y0299734D01*
X0095000Y0306050D02*
X0095000Y0310988D01*
X0095000Y0308519D02*
X0087594Y0308519D01*
X0090062Y0306050D01*
X0217594Y0307285D02*
X0218828Y0306050D01*
X0217594Y0307285D02*
X0217594Y0309754D01*
X0218828Y0310988D01*
X0220062Y0310988D01*
X0225000Y0306050D01*
X0225000Y0310988D01*
X0223766Y0303438D02*
X0217594Y0303438D01*
X0217594Y0298500D02*
X0223766Y0298500D01*
X0225000Y0299734D01*
X0225000Y0302203D01*
X0223766Y0303438D01*
D16*
X0222312Y0361091D02*
X0181288Y0361091D01*
X0181288Y0372509D01*
X0222312Y0372509D01*
X0222312Y0361091D01*
X0231288Y0361091D02*
X0231288Y0372509D01*
X0312312Y0372509D01*
X0312312Y0361091D01*
X0231288Y0361091D01*
X0172312Y0361091D02*
X0172312Y0372509D01*
X0091288Y0372509D01*
X0091288Y0361091D01*
X0172312Y0361091D01*
X0082312Y0361091D02*
X0082312Y0372509D01*
X0061288Y0372509D01*
X0061288Y0361091D01*
X0082312Y0361091D01*
X0072509Y0217312D02*
X0061091Y0217312D01*
X0061091Y0196288D01*
X0072509Y0196288D01*
X0072509Y0217312D01*
X0072509Y0187312D02*
X0061091Y0187312D01*
X0061091Y0106288D01*
X0072509Y0106288D01*
X0072509Y0187312D01*
X0072509Y0097312D02*
X0061091Y0097312D01*
X0061091Y0016288D01*
X0072509Y0016288D01*
X0072509Y0097312D01*
X0321288Y0361091D02*
X0321288Y0372509D01*
X0342312Y0372509D01*
X0342312Y0361091D01*
X0321288Y0361091D01*
D17*
X0308100Y0184300D02*
X0308100Y0181800D01*
X0308100Y0179300D01*
X0305600Y0179300D02*
X0305600Y0181800D01*
X0305600Y0184300D01*
X0305600Y0174300D02*
X0305600Y0171800D01*
X0305600Y0169300D01*
X0308100Y0169300D02*
X0308100Y0171800D01*
X0308100Y0174300D01*
X0098100Y0199300D02*
X0098100Y0201800D01*
X0098100Y0204300D01*
X0095600Y0204300D02*
X0095600Y0201800D01*
X0095600Y0199300D01*
X0095600Y0209300D02*
X0095600Y0211800D01*
X0095600Y0214300D01*
X0098100Y0214300D02*
X0098100Y0211800D01*
X0098100Y0209300D01*
X0079300Y0335500D02*
X0076800Y0335500D01*
X0074300Y0335500D01*
X0074300Y0338000D02*
X0076800Y0338000D01*
X0079300Y0338000D01*
X0069300Y0338000D02*
X0066800Y0338000D01*
X0064300Y0338000D01*
X0064300Y0335500D02*
X0066800Y0335500D01*
X0069300Y0335500D01*
D18*
X0072002Y0286800D03*
X0082002Y0276800D03*
X0092002Y0266800D03*
X0102002Y0256800D03*
X0112002Y0246800D03*
X0122002Y0236800D03*
X0141697Y0246800D03*
X0151697Y0236800D03*
X0131697Y0256800D03*
X0121697Y0266800D03*
X0111697Y0276800D03*
X0101697Y0286800D03*
X0261903Y0236800D03*
X0271903Y0246800D03*
X0281903Y0256800D03*
X0291903Y0266800D03*
X0301903Y0276800D03*
X0311903Y0286800D03*
X0331598Y0276800D03*
X0341598Y0286800D03*
X0321598Y0266800D03*
X0311598Y0256800D03*
X0301598Y0246800D03*
X0291598Y0236800D03*
D19*
X0290550Y0226800D03*
X0280550Y0216800D03*
X0253050Y0226800D03*
X0243050Y0216800D03*
X0170550Y0216800D03*
X0160550Y0226800D03*
X0133050Y0216800D03*
X0123050Y0226800D03*
D20*
X0191800Y0144098D03*
X0191800Y0114403D03*
M02*
