G75*
%MOIN*%
%OFA0B0*%
%FSLAX25Y25*%
%IPPOS*%
%LPD*%
%AMOC8*
5,1,8,0,0,1.08239X$1,22.5*
%
%ADD10C,0.07000*%
%ADD11C,0.00500*%
%ADD12R,0.05512X0.05512*%
%ADD13R,0.06762X0.06762*%
%ADD14C,0.06762*%
%ADD15C,0.07087*%
%ADD16OC8,0.05562*%
%ADD17OC8,0.06693*%
%ADD18C,0.05118*%
%ADD19C,0.02400*%
%ADD20C,0.02000*%
%ADD21C,0.05000*%
D10*
X0096800Y0021800D03*
X0096800Y0031800D03*
X0096800Y0041800D03*
X0096800Y0051800D03*
X0096800Y0061800D03*
X0096800Y0071800D03*
X0096800Y0081800D03*
X0096800Y0091800D03*
X0096800Y0101800D03*
X0096800Y0111800D03*
X0096800Y0121800D03*
X0096800Y0131800D03*
X0156800Y0131800D03*
X0156800Y0121800D03*
X0156800Y0111800D03*
X0156800Y0101800D03*
X0156800Y0091800D03*
X0156800Y0081800D03*
X0156800Y0071800D03*
X0156800Y0061800D03*
X0156800Y0051800D03*
X0156800Y0041800D03*
X0156800Y0031800D03*
X0156800Y0021800D03*
D11*
X0136800Y0156800D02*
X0276800Y0156800D01*
X0276800Y0196800D01*
X0136800Y0196800D01*
X0136800Y0156800D01*
D12*
X0141800Y0161800D03*
X0151800Y0161800D03*
X0161800Y0161800D03*
X0171800Y0161800D03*
X0181800Y0161800D03*
X0191800Y0161800D03*
X0201800Y0161800D03*
X0211800Y0161800D03*
X0221800Y0161800D03*
X0231800Y0161800D03*
X0241800Y0161800D03*
X0251800Y0161800D03*
X0261800Y0161800D03*
X0271800Y0161800D03*
X0271800Y0191800D03*
X0261800Y0191800D03*
X0251800Y0191800D03*
X0241800Y0191800D03*
X0231800Y0191800D03*
X0221800Y0191800D03*
X0211800Y0191800D03*
X0201800Y0191800D03*
X0191800Y0191800D03*
X0181800Y0191800D03*
X0171800Y0191800D03*
X0161800Y0191800D03*
X0151800Y0191800D03*
X0141800Y0191800D03*
D13*
X0106800Y0301800D03*
X0236800Y0301800D03*
D14*
X0246800Y0301800D03*
X0256800Y0301800D03*
X0266800Y0301800D03*
X0276800Y0301800D03*
X0286800Y0301800D03*
X0296800Y0301800D03*
X0306800Y0301800D03*
X0316800Y0301800D03*
X0316800Y0331800D03*
X0306800Y0331800D03*
X0296800Y0331800D03*
X0286800Y0331800D03*
X0276800Y0331800D03*
X0266800Y0331800D03*
X0256800Y0331800D03*
X0246800Y0331800D03*
X0236800Y0331800D03*
X0186800Y0331800D03*
X0176800Y0331800D03*
X0166800Y0331800D03*
X0156800Y0331800D03*
X0146800Y0331800D03*
X0136800Y0331800D03*
X0126800Y0331800D03*
X0116800Y0331800D03*
X0106800Y0331800D03*
X0116800Y0301800D03*
X0126800Y0301800D03*
X0136800Y0301800D03*
X0146800Y0301800D03*
X0156800Y0301800D03*
X0166800Y0301800D03*
X0176800Y0301800D03*
X0186800Y0301800D03*
D15*
X0186800Y0363257D02*
X0186800Y0370343D01*
X0196800Y0370343D02*
X0196800Y0363257D01*
X0206800Y0363257D02*
X0206800Y0370343D01*
X0216800Y0370343D02*
X0216800Y0363257D01*
X0236800Y0363257D02*
X0236800Y0370343D01*
X0246800Y0370343D02*
X0246800Y0363257D01*
X0256800Y0363257D02*
X0256800Y0370343D01*
X0266800Y0370343D02*
X0266800Y0363257D01*
X0276800Y0363257D02*
X0276800Y0370343D01*
X0286800Y0370343D02*
X0286800Y0363257D01*
X0296800Y0363257D02*
X0296800Y0370343D01*
X0306800Y0370343D02*
X0306800Y0363257D01*
X0326800Y0363257D02*
X0326800Y0370343D01*
X0336800Y0370343D02*
X0336800Y0363257D01*
X0166800Y0363257D02*
X0166800Y0370343D01*
X0156800Y0370343D02*
X0156800Y0363257D01*
X0146800Y0363257D02*
X0146800Y0370343D01*
X0136800Y0370343D02*
X0136800Y0363257D01*
X0126800Y0363257D02*
X0126800Y0370343D01*
X0116800Y0370343D02*
X0116800Y0363257D01*
X0106800Y0363257D02*
X0106800Y0370343D01*
X0096800Y0370343D02*
X0096800Y0363257D01*
X0076800Y0363257D02*
X0076800Y0370343D01*
X0066800Y0370343D02*
X0066800Y0363257D01*
X0063257Y0211800D02*
X0070343Y0211800D01*
X0070343Y0201800D02*
X0063257Y0201800D01*
X0063257Y0181800D02*
X0070343Y0181800D01*
X0070343Y0171800D02*
X0063257Y0171800D01*
X0063257Y0161800D02*
X0070343Y0161800D01*
X0070343Y0151800D02*
X0063257Y0151800D01*
X0063257Y0141800D02*
X0070343Y0141800D01*
X0070343Y0131800D02*
X0063257Y0131800D01*
X0063257Y0121800D02*
X0070343Y0121800D01*
X0070343Y0111800D02*
X0063257Y0111800D01*
X0063257Y0091800D02*
X0070343Y0091800D01*
X0070343Y0081800D02*
X0063257Y0081800D01*
X0063257Y0071800D02*
X0070343Y0071800D01*
X0070343Y0061800D02*
X0063257Y0061800D01*
X0063257Y0051800D02*
X0070343Y0051800D01*
X0070343Y0041800D02*
X0063257Y0041800D01*
X0063257Y0031800D02*
X0070343Y0031800D01*
X0070343Y0021800D02*
X0063257Y0021800D01*
D16*
X0086800Y0201800D03*
X0086800Y0211800D03*
X0106800Y0211800D03*
X0106800Y0201800D03*
X0076800Y0326800D03*
X0066800Y0326800D03*
X0066800Y0346800D03*
X0076800Y0346800D03*
X0296800Y0181800D03*
X0296800Y0171800D03*
X0316800Y0171800D03*
X0316800Y0181800D03*
D17*
X0286800Y0216800D03*
X0296800Y0226800D03*
X0296800Y0236800D03*
X0306800Y0246800D03*
X0316800Y0256800D03*
X0326800Y0266800D03*
X0336800Y0276800D03*
X0346800Y0286800D03*
X0306800Y0286800D03*
X0296800Y0276800D03*
X0286800Y0266800D03*
X0276800Y0256800D03*
X0266800Y0246800D03*
X0256800Y0236800D03*
X0246800Y0226800D03*
X0236800Y0216800D03*
X0176800Y0216800D03*
X0166800Y0226800D03*
X0156800Y0236800D03*
X0146800Y0246800D03*
X0136800Y0256800D03*
X0126800Y0266800D03*
X0116800Y0276800D03*
X0106800Y0286800D03*
X0086800Y0266800D03*
X0076800Y0276800D03*
X0066800Y0286800D03*
X0096800Y0256800D03*
X0106800Y0246800D03*
X0116800Y0236800D03*
X0116800Y0226800D03*
X0126800Y0216800D03*
X0191800Y0149300D03*
X0191800Y0109300D03*
D18*
X0036800Y0051800D03*
X0051800Y0051800D03*
X0081800Y0061800D03*
X0081800Y0071800D03*
X0081800Y0086800D03*
X0088040Y0091800D03*
X0051800Y0111800D03*
X0036800Y0111800D03*
X0036800Y0151800D03*
X0051800Y0151800D03*
X0081800Y0171800D03*
X0088040Y0141800D03*
X0131800Y0141800D03*
X0146800Y0136800D03*
X0141800Y0121800D03*
X0171800Y0101800D03*
X0171800Y0149300D03*
X0131800Y0051800D03*
D19*
X0131800Y0141800D01*
X0171800Y0149300D02*
X0171800Y0101800D01*
D20*
X0141800Y0121800D02*
X0141800Y0131800D01*
X0146800Y0136800D01*
D21*
X0088040Y0141800D02*
X0088040Y0091800D01*
X0081800Y0086800D02*
X0081800Y0171800D01*
X0051800Y0151800D02*
X0036800Y0151800D01*
X0036800Y0111800D02*
X0051800Y0111800D01*
X0081800Y0071800D02*
X0081800Y0061800D01*
X0051800Y0051800D02*
X0036800Y0051800D01*
M02*
